<?xml version="1.0" encoding="utf-8"?>
<!-- Generator: Adobe Illustrator 16.0.0, SVG Export Plug-In . SVG Version: 6.00 Build 0)  -->
<!DOCTYPE svg PUBLIC "-//W3C//DTD SVG 1.1//EN" "http://www.w3.org/Graphics/SVG/1.1/DTD/svg11.dtd">
<svg version="1.1" id="Layer_1" xmlns:xl="http://www.w3.org/1999/xlink" xmlns:dc="http://purl.org/dc/elements/1.1/"
	 xmlns="http://www.w3.org/2000/svg" xmlns:xlink="http://www.w3.org/1999/xlink" x="0px" y="0px" width="895.066px"
	 height="803.96px" viewBox="0 40.607 895.066 803.96" enable-background="new 0 40.607 895.066 803.96" xml:space="preserve">
<rect x="56.693" y="229.606" fill="#B6EBF8" width="23.764" height="498.897"/>
<rect x="56.693" y="143.756" fill="#B6EBF8" width="244.422" height="88"/>
<g enable-background="new    ">
	<path d="M73.677,171.732l11.744,4.672v3.647l-16.256-6.432v-3.776l16.256-6.464v3.681L73.677,171.732z"/>
	<path d="M100.493,156.98l8.544,22.848h-5.216l-1.728-5.088h-8.544l-1.792,5.088h-5.056l8.64-22.848H100.493z M100.781,170.996
		l-2.88-8.384h-0.064l-2.976,8.384H100.781z"/>
	<path d="M118.444,166.26c-0.725,0-1.333,0.166-1.824,0.496c-0.491,0.331-0.891,0.758-1.2,1.28c-0.31,0.523-0.528,1.099-0.656,1.728
		c-0.128,0.63-0.192,1.254-0.192,1.872c0,0.598,0.064,1.206,0.192,1.824c0.128,0.619,0.336,1.179,0.624,1.68
		c0.288,0.502,0.677,0.912,1.168,1.232c0.49,0.32,1.088,0.48,1.792,0.48c1.088,0,1.925-0.305,2.512-0.912
		c0.586-0.608,0.955-1.424,1.104-2.448h4.384c-0.299,2.197-1.152,3.872-2.56,5.024c-1.408,1.151-3.211,1.728-5.408,1.728
		c-1.237,0-2.374-0.208-3.408-0.624c-1.035-0.416-1.915-0.997-2.64-1.744c-0.726-0.746-1.291-1.637-1.696-2.672
		c-0.406-1.034-0.608-2.171-0.608-3.408c0-1.279,0.187-2.469,0.56-3.567c0.373-1.099,0.923-2.049,1.648-2.849
		s1.611-1.424,2.656-1.872c1.045-0.447,2.24-0.672,3.584-0.672c0.981,0,1.925,0.128,2.832,0.384
		c0.906,0.257,1.717,0.646,2.432,1.168c0.714,0.523,1.296,1.174,1.744,1.952c0.448,0.779,0.704,1.702,0.768,2.769h-4.448
		C121.505,167.21,120.386,166.26,118.444,166.26z"/>
	<path d="M137.996,163.284v3.04h-3.328v8.192c0,0.768,0.128,1.279,0.384,1.535c0.256,0.257,0.768,0.385,1.536,0.385
		c0.256,0,0.501-0.011,0.736-0.032c0.234-0.021,0.458-0.053,0.672-0.096v3.52c-0.384,0.064-0.811,0.106-1.28,0.128
		c-0.47,0.021-0.928,0.032-1.376,0.032c-0.704,0-1.371-0.048-2-0.145c-0.63-0.096-1.184-0.282-1.664-0.56s-0.859-0.672-1.136-1.184
		c-0.277-0.513-0.416-1.185-0.416-2.017v-9.76h-2.752v-3.04h2.752v-4.96h4.544v4.96H137.996z"/>
	<path d="M140.3,160.725v-3.744h4.544v3.744H140.3z M144.844,163.284v16.544H140.3v-16.544H144.844z"/>
	<path d="M152.524,179.828l-5.664-16.544h4.768l3.488,11.296h0.064l3.488-11.296h4.512l-5.6,16.544H152.524z"/>
	<path d="M165.195,160.725v-3.744h4.544v3.744H165.195z M169.739,163.284v16.544h-4.544v-16.544H169.739z"/>
	<path d="M182.411,163.284v3.04h-3.328v8.192c0,0.768,0.128,1.279,0.384,1.535c0.256,0.257,0.768,0.385,1.536,0.385
		c0.256,0,0.501-0.011,0.736-0.032c0.234-0.021,0.458-0.053,0.672-0.096v3.52c-0.384,0.064-0.811,0.106-1.28,0.128
		c-0.47,0.021-0.928,0.032-1.376,0.032c-0.704,0-1.371-0.048-2-0.145c-0.63-0.096-1.184-0.282-1.664-0.56s-0.859-0.672-1.136-1.184
		c-0.277-0.513-0.416-1.185-0.416-2.017v-9.76h-2.752v-3.04h2.752v-4.96h4.544v4.96H182.411z"/>
	<path d="M190.699,184.756c-0.875,0.576-2.091,0.864-3.648,0.864c-0.469,0-0.934-0.016-1.392-0.048
		c-0.459-0.032-0.923-0.069-1.392-0.112v-3.744c0.426,0.043,0.864,0.085,1.312,0.128c0.448,0.043,0.896,0.054,1.344,0.032
		c0.597-0.063,1.04-0.299,1.328-0.704s0.432-0.854,0.432-1.344c0-0.362-0.064-0.704-0.192-1.024l-5.792-15.52h4.832l3.744,11.328
		h0.064l3.616-11.328h4.704l-6.912,18.592C192.256,183.22,191.573,184.18,190.699,184.756z"/>
</g>
<g enable-background="new    ">
	<path d="M224.365,176.276v3.552h-3.552v-3.552H224.365z M235.021,176.276v3.552h-3.552v-3.552H235.021z M245.677,176.276v3.552
		h-3.552v-3.552H245.677z"/>
</g>
<g enable-background="new    ">
	<path d="M262.477,171.732l-11.744-4.672v-3.681l16.256,6.464v3.776l-16.256,6.432v-3.647L262.477,171.732z"/>
</g>
<g enable-background="new    ">
	<path d="M285.645,158.356c-0.32,0-0.576,0.08-0.768,0.239c-0.192,0.16-0.347,0.368-0.464,0.624c-0.118,0.257-0.198,0.55-0.24,0.881
		c-0.043,0.33-0.064,0.667-0.064,1.008v5.855c0,0.747-0.112,1.382-0.336,1.904c-0.224,0.523-0.485,0.955-0.784,1.296
		c-0.299,0.342-0.603,0.598-0.912,0.768c-0.31,0.172-0.56,0.278-0.752,0.32v0.096c0.192,0.021,0.443,0.107,0.752,0.257
		c0.309,0.149,0.613,0.389,0.912,0.72s0.56,0.763,0.784,1.296s0.336,1.205,0.336,2.016v5.824c0,0.32,0.021,0.646,0.064,0.977
		c0.042,0.33,0.123,0.629,0.24,0.896c0.117,0.267,0.272,0.48,0.464,0.64c0.192,0.16,0.448,0.24,0.768,0.24h1.6v1.92h-2.24
		c-0.405,0-0.811-0.091-1.216-0.271c-0.406-0.182-0.773-0.448-1.104-0.8c-0.331-0.353-0.603-0.79-0.816-1.312
		c-0.214-0.522-0.32-1.125-0.32-1.808v-5.792c0-0.576-0.075-1.099-0.224-1.568c-0.149-0.469-0.347-0.864-0.592-1.184
		c-0.246-0.32-0.528-0.565-0.848-0.736c-0.32-0.171-0.651-0.256-0.992-0.256v-2.176c0.341,0,0.672-0.091,0.992-0.272
		c0.32-0.181,0.603-0.437,0.848-0.768c0.245-0.331,0.442-0.73,0.592-1.2c0.149-0.469,0.224-0.981,0.224-1.536v-5.824
		c0-0.683,0.106-1.285,0.32-1.808c0.213-0.522,0.485-0.96,0.816-1.312c0.331-0.352,0.698-0.618,1.104-0.8
		c0.405-0.181,0.811-0.271,1.216-0.271h2.24v1.92H285.645z"/>
</g>
<g enable-background="new    ">
	<path d="M98.629,202.42c-0.555,2.443-0.832,4.923-0.832,7.439c0,2.561,0.272,5.067,0.816,7.521s1.424,4.843,2.64,7.168h-3.776
		c-1.344-2.197-2.384-4.512-3.12-6.944c-0.736-2.432-1.104-4.906-1.104-7.424c0-1.194,0.09-2.448,0.272-3.76
		c0.181-1.312,0.448-2.618,0.8-3.92c0.352-1.301,0.789-2.561,1.312-3.776c0.522-1.216,1.136-2.336,1.84-3.359h3.808
		C100.069,197.625,99.184,199.978,98.629,202.42z"/>
</g>
<g enable-background="new    ">
	<path d="M108.853,215.204v3.552h-3.552v-3.552H108.853z M119.509,215.204v3.552h-3.552v-3.552H119.509z M130.165,215.204v3.552
		h-3.552v-3.552H130.165z"/>
</g>
<g enable-background="new    ">
	<path d="M136.165,217.523c0.565-2.421,0.848-4.89,0.848-7.407c0-2.561-0.278-5.077-0.832-7.553
		c-0.555-2.474-1.419-4.874-2.592-7.199h3.744c1.344,2.197,2.384,4.522,3.12,6.976c0.736,2.453,1.104,4.939,1.104,7.456
		c0,1.195-0.085,2.448-0.256,3.76c-0.171,1.312-0.432,2.613-0.784,3.904s-0.795,2.544-1.328,3.76s-1.152,2.325-1.856,3.328h-3.776
		C134.73,222.286,135.6,219.945,136.165,217.523z"/>
	<path d="M153.653,208.964v-3.424h16.16v3.424H153.653z M153.653,215.812v-3.424h16.16v3.424H153.653z"/>
	<path d="M184.532,210.66l-11.744-4.672v-3.681l16.256,6.464v3.776l-16.256,6.432v-3.647L184.532,210.66z"/>
	<path d="M205.396,210.66l11.744,4.672v3.647l-16.256-6.432v-3.776l16.256-6.464v3.681L205.396,210.66z"/>
	<path d="M231.828,210.66l-11.744-4.672v-3.681l16.256,6.464v3.776l-16.256,6.432v-3.647L231.828,210.66z"/>
</g>
<rect x="171.425" y="373.362" fill="#B6EBF8" width="191" height="49"/>
<g enable-background="new    ">
	<path d="M188.409,401.303l11.744,4.672v3.647l-16.256-6.432v-3.776l16.256-6.464v3.681L188.409,401.303z"/>
	<path d="M202.041,390.774v-4.224h18.72v4.224h-6.848v18.624h-5.024v-18.624H202.041z"/>
</g>
<g enable-background="new    ">
	<path d="M227.113,405.431c0.683,0.661,1.664,0.992,2.944,0.992c0.917,0,1.707-0.229,2.368-0.688
		c0.661-0.458,1.067-0.944,1.216-1.456h4c-0.64,1.984-1.622,3.403-2.944,4.256c-1.323,0.854-2.923,1.28-4.8,1.28
		c-1.301,0-2.475-0.208-3.52-0.624c-1.045-0.416-1.931-1.008-2.656-1.776c-0.726-0.768-1.286-1.685-1.68-2.752
		c-0.395-1.066-0.592-2.239-0.592-3.52c0-1.237,0.202-2.389,0.608-3.456c0.405-1.066,0.981-1.989,1.728-2.769
		c0.747-0.778,1.637-1.392,2.672-1.84c1.035-0.447,2.181-0.672,3.44-0.672c1.408,0,2.635,0.272,3.68,0.816
		c1.045,0.544,1.904,1.274,2.576,2.191c0.672,0.918,1.157,1.963,1.456,3.137c0.299,1.173,0.405,2.399,0.32,3.68h-11.936
		C226.057,403.702,226.43,404.77,227.113,405.431z M232.249,396.727c-0.544-0.597-1.371-0.896-2.48-0.896
		c-0.726,0-1.328,0.123-1.808,0.368c-0.48,0.246-0.864,0.55-1.152,0.912c-0.288,0.363-0.491,0.747-0.608,1.152
		c-0.118,0.405-0.187,0.768-0.208,1.088h7.392C233.171,398.198,232.793,397.324,232.249,396.727z"/>
	<path d="M239.401,392.854h5.184l2.912,4.32l2.88-4.32h5.024l-5.44,7.744l6.112,8.8h-5.184l-3.456-5.216l-3.456,5.216h-5.088
		l5.952-8.704L239.401,392.854z"/>
	<path d="M266.888,392.854v3.04h-3.328v8.192c0,0.768,0.128,1.279,0.384,1.535c0.256,0.257,0.768,0.385,1.536,0.385
		c0.256,0,0.501-0.011,0.736-0.032c0.234-0.021,0.458-0.053,0.672-0.096v3.52c-0.384,0.064-0.811,0.106-1.28,0.128
		c-0.47,0.021-0.928,0.032-1.376,0.032c-0.704,0-1.371-0.048-2-0.145c-0.63-0.096-1.184-0.282-1.664-0.56s-0.859-0.672-1.136-1.184
		c-0.277-0.513-0.416-1.185-0.416-2.017v-9.76h-2.752v-3.04h2.752v-4.96h4.544v4.96H266.888z"/>
</g>
<g enable-background="new    ">
	<path d="M283.337,405.847v3.552h-3.552v-3.552H283.337z M293.993,405.847v3.552h-3.552v-3.552H293.993z M304.649,405.847v3.552
		h-3.552v-3.552H304.649z"/>
</g>
<g enable-background="new    ">
	<path d="M329.354,386.007l-8.928,23.903h-3.616l8.896-23.903H329.354z"/>
	<path d="M342.217,401.303l-11.744-4.672v-3.681l16.256,6.464v3.776l-16.256,6.432v-3.647L342.217,401.303z"/>
</g>
<rect x="171.268" y="444.229" fill="#B6EBF8" width="235" height="49"/>
<g enable-background="new    ">
	<path d="M188.251,472.169l11.744,4.672v3.647l-16.256-6.432v-3.776l16.256-6.464v3.681L188.251,472.169z"/>
	<path d="M214.427,457.417c1.088,0,2.08,0.096,2.976,0.288c0.896,0.191,1.664,0.507,2.304,0.943c0.64,0.438,1.136,1.02,1.488,1.744
		c0.352,0.726,0.528,1.621,0.528,2.688c0,1.151-0.261,2.111-0.784,2.88c-0.523,0.768-1.296,1.397-2.32,1.888
		c1.408,0.405,2.458,1.115,3.152,2.128c0.693,1.014,1.04,2.235,1.04,3.664c0,1.152-0.224,2.149-0.672,2.992
		c-0.448,0.843-1.051,1.531-1.808,2.063c-0.757,0.534-1.621,0.929-2.592,1.185c-0.971,0.256-1.968,0.384-2.992,0.384h-11.072
		v-22.848H214.427z M213.787,466.665c0.896,0,1.632-0.214,2.208-0.641c0.576-0.426,0.864-1.12,0.864-2.08
		c0-0.532-0.096-0.97-0.288-1.312c-0.192-0.341-0.448-0.608-0.768-0.8c-0.32-0.192-0.688-0.325-1.104-0.4
		c-0.416-0.074-0.848-0.112-1.296-0.112h-4.704v5.345H213.787z M214.075,476.36c0.491,0,0.96-0.048,1.408-0.144
		c0.448-0.096,0.842-0.256,1.184-0.48c0.341-0.224,0.613-0.527,0.816-0.912c0.202-0.384,0.304-0.874,0.304-1.472
		c0-1.173-0.331-2.011-0.992-2.512c-0.662-0.501-1.536-0.752-2.624-0.752h-5.472v6.271H214.075z"/>
	<path d="M236.923,480.265v-2.304h-0.096c-0.576,0.96-1.323,1.653-2.24,2.08c-0.917,0.426-1.856,0.64-2.816,0.64
		c-1.216,0-2.213-0.16-2.992-0.48c-0.779-0.319-1.392-0.772-1.84-1.359c-0.448-0.587-0.763-1.301-0.944-2.145
		c-0.182-0.842-0.272-1.775-0.272-2.8v-10.176h4.544v9.344c0,1.365,0.213,2.384,0.64,3.057c0.426,0.672,1.184,1.008,2.272,1.008
		c1.237,0,2.133-0.368,2.688-1.104c0.554-0.735,0.832-1.946,0.832-3.632v-8.672h4.544v16.544H236.923z"/>
	<path d="M253.787,463.721v3.04h-3.328v8.192c0,0.768,0.128,1.279,0.384,1.535c0.256,0.257,0.768,0.385,1.536,0.385
		c0.256,0,0.501-0.011,0.736-0.032c0.234-0.021,0.458-0.053,0.672-0.096v3.52c-0.384,0.064-0.811,0.106-1.28,0.128
		c-0.47,0.021-0.928,0.032-1.376,0.032c-0.704,0-1.371-0.048-2-0.145c-0.63-0.096-1.184-0.282-1.664-0.56s-0.859-0.672-1.136-1.184
		c-0.277-0.513-0.416-1.185-0.416-2.017v-9.76h-2.752v-3.04h2.752v-4.96h4.544v4.96H253.787z"/>
	<path d="M265.05,463.721v3.04h-3.328v8.192c0,0.768,0.128,1.279,0.384,1.535c0.256,0.257,0.768,0.385,1.536,0.385
		c0.256,0,0.501-0.011,0.736-0.032c0.234-0.021,0.458-0.053,0.672-0.096v3.52c-0.384,0.064-0.811,0.106-1.28,0.128
		c-0.47,0.021-0.928,0.032-1.376,0.032c-0.704,0-1.371-0.048-2-0.145c-0.63-0.096-1.184-0.282-1.664-0.56s-0.859-0.672-1.136-1.184
		c-0.277-0.513-0.416-1.185-0.416-2.017v-9.76h-2.752v-3.04h2.752v-4.96h4.544v4.96H265.05z"/>
	<path d="M267.322,468.408c0.405-1.076,0.981-1.994,1.728-2.752c0.747-0.757,1.643-1.344,2.688-1.76
		c1.045-0.416,2.218-0.624,3.52-0.624s2.48,0.208,3.536,0.624c1.056,0.416,1.957,1.003,2.704,1.76
		c0.747,0.758,1.322,1.676,1.728,2.752c0.405,1.078,0.608,2.278,0.608,3.601c0,1.323-0.203,2.518-0.608,3.584
		c-0.406,1.066-0.981,1.979-1.728,2.736c-0.747,0.757-1.648,1.339-2.704,1.743c-1.056,0.405-2.235,0.608-3.536,0.608
		s-2.475-0.203-3.52-0.608c-1.046-0.404-1.942-0.986-2.688-1.743c-0.747-0.758-1.323-1.67-1.728-2.736
		c-0.406-1.066-0.608-2.261-0.608-3.584C266.714,470.687,266.917,469.486,267.322,468.408z M271.45,473.944
		c0.128,0.63,0.346,1.195,0.656,1.696c0.309,0.502,0.72,0.901,1.232,1.2c0.512,0.299,1.152,0.448,1.92,0.448
		c0.768,0,1.413-0.149,1.936-0.448c0.522-0.299,0.938-0.698,1.248-1.2c0.309-0.501,0.528-1.066,0.656-1.696
		c0.128-0.629,0.192-1.274,0.192-1.936s-0.064-1.312-0.192-1.952s-0.347-1.205-0.656-1.696c-0.31-0.49-0.726-0.891-1.248-1.199
		c-0.523-0.31-1.168-0.465-1.936-0.465c-0.768,0-1.408,0.155-1.92,0.465c-0.512,0.309-0.923,0.709-1.232,1.199
		c-0.31,0.491-0.528,1.057-0.656,1.696s-0.192,1.291-0.192,1.952S271.322,473.315,271.45,473.944z"/>
	<path d="M291.098,463.721v2.304h0.096c0.576-0.96,1.322-1.658,2.24-2.096c0.917-0.438,1.856-0.656,2.816-0.656
		c1.216,0,2.213,0.166,2.992,0.496c0.779,0.331,1.392,0.79,1.84,1.376c0.448,0.587,0.762,1.302,0.944,2.145
		c0.181,0.843,0.272,1.775,0.272,2.8v10.176h-4.544v-9.344c0-1.365-0.213-2.384-0.64-3.057c-0.427-0.672-1.184-1.008-2.272-1.008
		c-1.237,0-2.133,0.368-2.688,1.104c-0.555,0.735-0.832,1.946-0.832,3.632v8.672h-4.544v-16.544H291.098z"/>
</g>
<g enable-background="new    ">
	<path d="M328.924,476.713v3.552h-3.552v-3.552H328.924z M339.58,476.713v3.552h-3.552v-3.552H339.58z M350.236,476.713v3.552
		h-3.552v-3.552H350.236z"/>
</g>
<g enable-background="new    ">
	<path d="M374.94,456.873l-8.928,23.903h-3.616l8.896-23.903H374.94z"/>
	<path d="M387.803,472.169l-11.744-4.672v-3.681l16.256,6.464v3.776l-16.256,6.432v-3.647L387.803,472.169z"/>
</g>
<rect x="56.817" y="725.325" fill="#B6EBF8" width="211" height="88"/>
<g enable-background="new    ">
	<path d="M103.801,753.301l11.744,4.672v3.648l-16.256-6.432v-3.777l16.256-6.463v3.68L103.801,753.301z"/>
	<path d="M129.241,738.006l-8.928,23.902h-3.616l8.896-23.902H129.241z"/>
	<path d="M142.104,753.301l-11.744-4.672v-3.68l16.256,6.463v3.777l-16.256,6.432v-3.648L142.104,753.301z"/>
</g>
<g enable-background="new    ">
	<path d="M68.933,804.709c0.32,0,0.576-0.08,0.768-0.24c0.192-0.159,0.346-0.367,0.464-0.624c0.117-0.256,0.197-0.549,0.24-0.88
		c0.042-0.331,0.064-0.667,0.064-1.008v-5.824c0-0.746,0.112-1.381,0.336-1.903c0.224-0.522,0.485-0.955,0.784-1.296
		c0.298-0.342,0.603-0.598,0.912-0.769c0.309-0.17,0.56-0.276,0.752-0.32v-0.096c-0.192-0.021-0.443-0.106-0.752-0.256
		c-0.31-0.149-0.614-0.389-0.912-0.72c-0.299-0.331-0.56-0.763-0.784-1.296c-0.224-0.533-0.336-1.205-0.336-2.017v-5.792
		c0-0.362-0.021-0.709-0.064-1.04c-0.043-0.33-0.123-0.629-0.24-0.896c-0.118-0.267-0.272-0.48-0.464-0.641
		c-0.192-0.159-0.448-0.239-0.768-0.239h-1.6v-1.92h2.24c0.405,0,0.811,0.091,1.216,0.271c0.405,0.182,0.773,0.448,1.104,0.8
		c0.331,0.353,0.603,0.79,0.816,1.312c0.213,0.522,0.32,1.125,0.32,1.808v5.824c0,0.576,0.075,1.099,0.224,1.568
		c0.149,0.469,0.347,0.869,0.592,1.199c0.245,0.331,0.528,0.582,0.848,0.752c0.32,0.172,0.65,0.257,0.992,0.257v2.176
		c-0.342,0-0.672,0.091-0.992,0.271c-0.32,0.182-0.603,0.438-0.848,0.769s-0.443,0.726-0.592,1.184
		c-0.149,0.459-0.224,0.966-0.224,1.521v5.792c0,0.683-0.107,1.285-0.32,1.808c-0.213,0.522-0.485,0.96-0.816,1.312
		c-0.331,0.352-0.699,0.618-1.104,0.8c-0.406,0.181-0.811,0.271-1.216,0.271h-2.24v-1.92H68.933z"/>
</g>
<g enable-background="new    ">
	<path d="M92.101,792.229l11.744,4.672v3.647l-16.256-6.432v-3.776l16.256-6.464v3.681L92.101,792.229z"/>
	<path d="M117.541,776.934l-8.928,23.903h-3.616l8.896-23.903H117.541z"/>
	<path d="M130.789,777.478l8.544,22.848h-5.216l-1.728-5.088h-8.544l-1.792,5.088h-5.056l8.64-22.848H130.789z M131.077,791.493
		l-2.88-8.384h-0.064l-2.976,8.384H131.077z"/>
	<path d="M148.74,786.757c-0.725,0-1.333,0.166-1.824,0.496c-0.491,0.331-0.891,0.758-1.2,1.28c-0.31,0.523-0.528,1.099-0.656,1.728
		c-0.128,0.63-0.192,1.254-0.192,1.872c0,0.598,0.064,1.206,0.192,1.824c0.128,0.619,0.336,1.179,0.624,1.68
		c0.288,0.502,0.677,0.912,1.168,1.232c0.49,0.32,1.088,0.48,1.792,0.48c1.088,0,1.925-0.305,2.512-0.912
		c0.586-0.608,0.955-1.424,1.104-2.448h4.384c-0.299,2.197-1.152,3.872-2.56,5.024c-1.408,1.151-3.211,1.728-5.408,1.728
		c-1.237,0-2.374-0.208-3.408-0.624c-1.035-0.416-1.915-0.997-2.64-1.744c-0.726-0.746-1.291-1.637-1.696-2.672
		c-0.406-1.034-0.608-2.171-0.608-3.408c0-1.279,0.187-2.469,0.56-3.567c0.373-1.099,0.923-2.049,1.648-2.849
		s1.611-1.424,2.656-1.872c1.045-0.447,2.24-0.672,3.584-0.672c0.981,0,1.925,0.128,2.832,0.384
		c0.906,0.257,1.717,0.646,2.432,1.168c0.714,0.523,1.296,1.174,1.744,1.952c0.448,0.779,0.704,1.702,0.768,2.769h-4.448
		C151.801,787.707,150.682,786.757,148.74,786.757z"/>
	<path d="M168.292,783.781v3.04h-3.328v8.192c0,0.768,0.128,1.279,0.384,1.535c0.256,0.257,0.768,0.385,1.536,0.385
		c0.256,0,0.501-0.011,0.736-0.032c0.234-0.021,0.458-0.053,0.672-0.096v3.52c-0.384,0.064-0.811,0.106-1.28,0.128
		c-0.47,0.021-0.928,0.032-1.376,0.032c-0.704,0-1.371-0.048-2-0.145c-0.63-0.096-1.184-0.282-1.664-0.56s-0.859-0.672-1.136-1.184
		c-0.277-0.513-0.416-1.185-0.416-2.017v-9.76h-2.752v-3.04h2.752v-4.96h4.544v4.96H168.292z"/>
	<path d="M170.596,781.222v-3.744h4.544v3.744H170.596z M175.14,783.781v16.544h-4.544v-16.544H175.14z"/>
	<path d="M182.82,800.325l-5.664-16.544h4.768l3.488,11.296h0.064l3.488-11.296h4.512l-5.6,16.544H182.82z"/>
	<path d="M195.491,781.222v-3.744h4.544v3.744H195.491z M200.035,783.781v16.544h-4.544v-16.544H200.035z"/>
	<path d="M212.707,783.781v3.04h-3.328v8.192c0,0.768,0.128,1.279,0.384,1.535c0.256,0.257,0.768,0.385,1.536,0.385
		c0.256,0,0.501-0.011,0.736-0.032c0.234-0.021,0.458-0.053,0.672-0.096v3.52c-0.384,0.064-0.811,0.106-1.28,0.128
		c-0.47,0.021-0.928,0.032-1.376,0.032c-0.704,0-1.371-0.048-2-0.145c-0.63-0.096-1.184-0.282-1.664-0.56s-0.859-0.672-1.136-1.184
		c-0.277-0.513-0.416-1.185-0.416-2.017v-9.76h-2.752v-3.04h2.752v-4.96h4.544v4.96H212.707z"/>
	<path d="M220.995,805.253c-0.875,0.576-2.091,0.864-3.648,0.864c-0.469,0-0.934-0.016-1.392-0.048
		c-0.459-0.032-0.923-0.069-1.392-0.112v-3.744c0.426,0.043,0.864,0.085,1.312,0.128c0.448,0.043,0.896,0.054,1.344,0.032
		c0.597-0.063,1.04-0.299,1.328-0.704s0.432-0.854,0.432-1.344c0-0.362-0.064-0.704-0.192-1.024l-5.792-15.52h4.832l3.744,11.328
		h0.064l3.616-11.328h4.704l-6.912,18.592C222.552,803.717,221.869,804.677,220.995,805.253z"/>
	<path d="M242.979,792.229l-11.744-4.672v-3.681l16.256,6.464v3.776l-16.256,6.432v-3.647L242.979,792.229z"/>
</g>
<rect x="113.386" y="337.712" fill="#B6EBF8" width="23.764" height="252.283"/>
<rect x="113.583" y="521.449" fill="#B6EBF8" width="178" height="88"/>
<g enable-background="new    ">
	<path d="M161.566,549.425l11.744,4.672v3.647l-16.256-6.432v-3.776l16.256-6.464v3.681L161.566,549.425z"/>
	<path d="M187.006,534.129l-8.928,23.903h-3.616l8.896-23.903H187.006z"/>
	<path d="M199.87,549.425l-11.744-4.672v-3.681l16.256,6.464v3.776l-16.256,6.432v-3.647L199.87,549.425z"/>
</g>
<g enable-background="new    ">
	<path d="M125.503,600.833c0.32,0,0.576-0.08,0.768-0.24c0.192-0.159,0.346-0.367,0.464-0.624c0.117-0.256,0.197-0.549,0.24-0.88
		c0.042-0.331,0.064-0.667,0.064-1.008v-5.824c0-0.746,0.112-1.381,0.336-1.903c0.224-0.522,0.485-0.955,0.784-1.296
		c0.298-0.342,0.603-0.598,0.912-0.769c0.309-0.17,0.56-0.276,0.752-0.32v-0.096c-0.192-0.021-0.443-0.106-0.752-0.256
		c-0.31-0.149-0.614-0.389-0.912-0.72c-0.299-0.331-0.56-0.763-0.784-1.296c-0.224-0.533-0.336-1.205-0.336-2.017v-5.792
		c0-0.362-0.021-0.709-0.064-1.04c-0.043-0.33-0.123-0.629-0.24-0.896c-0.118-0.267-0.272-0.48-0.464-0.641
		c-0.192-0.159-0.448-0.239-0.768-0.239h-1.6v-1.92h2.24c0.405,0,0.811,0.091,1.216,0.271c0.405,0.182,0.773,0.448,1.104,0.8
		c0.331,0.353,0.603,0.79,0.816,1.312c0.213,0.522,0.32,1.125,0.32,1.808v5.824c0,0.576,0.075,1.099,0.224,1.568
		c0.149,0.469,0.347,0.869,0.592,1.199c0.245,0.331,0.528,0.582,0.848,0.752c0.32,0.172,0.65,0.257,0.992,0.257v2.176
		c-0.342,0-0.672,0.091-0.992,0.271c-0.32,0.182-0.603,0.438-0.848,0.769s-0.443,0.726-0.592,1.184
		c-0.149,0.459-0.224,0.966-0.224,1.521v5.792c0,0.683-0.107,1.285-0.32,1.808c-0.213,0.522-0.485,0.96-0.816,1.312
		c-0.331,0.352-0.699,0.618-1.104,0.8c-0.406,0.181-0.811,0.271-1.216,0.271h-2.24v-1.92H125.503z"/>
</g>
<g enable-background="new    ">
	<path d="M148.67,588.354l11.744,4.672v3.647l-16.256-6.432v-3.776l16.256-6.464v3.681L148.67,588.354z"/>
	<path d="M174.11,573.058l-8.928,23.903h-3.616l8.896-23.903H174.11z"/>
	<path d="M192.03,573.602v4.224h-11.04v5.28h9.568v3.903h-9.568v9.44h-5.024v-22.848H192.03z"/>
	<path d="M194.558,584.593c0.405-1.076,0.981-1.994,1.728-2.752c0.747-0.757,1.643-1.344,2.688-1.76
		c1.045-0.416,2.218-0.624,3.52-0.624s2.48,0.208,3.536,0.624c1.056,0.416,1.957,1.003,2.704,1.76
		c0.747,0.758,1.322,1.676,1.728,2.752c0.405,1.078,0.608,2.278,0.608,3.601c0,1.323-0.203,2.518-0.608,3.584
		c-0.406,1.066-0.981,1.979-1.728,2.736c-0.747,0.757-1.648,1.339-2.704,1.743c-1.056,0.405-2.235,0.608-3.536,0.608
		s-2.475-0.203-3.52-0.608c-1.046-0.404-1.942-0.986-2.688-1.743c-0.747-0.758-1.323-1.67-1.728-2.736
		c-0.406-1.066-0.608-2.261-0.608-3.584C193.949,586.871,194.152,585.671,194.558,584.593z M198.686,590.129
		c0.128,0.63,0.346,1.195,0.656,1.696c0.309,0.502,0.72,0.901,1.232,1.2c0.512,0.299,1.152,0.448,1.92,0.448
		c0.768,0,1.413-0.149,1.936-0.448c0.522-0.299,0.938-0.698,1.248-1.2c0.309-0.501,0.528-1.066,0.656-1.696
		c0.128-0.629,0.192-1.274,0.192-1.936s-0.064-1.312-0.192-1.952s-0.347-1.205-0.656-1.696c-0.31-0.49-0.726-0.891-1.248-1.199
		c-0.523-0.31-1.168-0.465-1.936-0.465c-0.768,0-1.408,0.155-1.92,0.465c-0.512,0.309-0.923,0.709-1.232,1.199
		c-0.31,0.491-0.528,1.057-0.656,1.696s-0.192,1.291-0.192,1.952S198.558,589.5,198.686,590.129z"/>
	<path d="M218.333,579.905v3.072h0.064c0.213-0.513,0.501-0.987,0.864-1.425c0.362-0.437,0.778-0.81,1.248-1.119
		c0.469-0.31,0.97-0.55,1.504-0.721c0.533-0.17,1.088-0.256,1.664-0.256c0.298,0,0.629,0.054,0.992,0.16v4.224
		c-0.213-0.042-0.469-0.08-0.768-0.111c-0.299-0.032-0.587-0.048-0.864-0.048c-0.832,0-1.536,0.139-2.112,0.416
		c-0.576,0.277-1.04,0.655-1.392,1.136c-0.352,0.479-0.603,1.04-0.752,1.68c-0.149,0.64-0.224,1.334-0.224,2.08v7.456h-4.544
		v-16.544H218.333z"/>
	<path d="M230.877,579.905v2.24h0.064c0.597-0.854,1.317-1.515,2.16-1.984c0.842-0.469,1.808-0.704,2.896-0.704
		c1.045,0,2,0.203,2.864,0.608c0.864,0.405,1.52,1.12,1.968,2.144c0.49-0.725,1.157-1.365,2-1.92
		c0.842-0.555,1.84-0.832,2.992-0.832c0.875,0,1.685,0.107,2.432,0.32c0.747,0.213,1.387,0.555,1.92,1.023
		c0.533,0.47,0.949,1.083,1.248,1.841c0.298,0.757,0.448,1.669,0.448,2.735v11.072h-4.544v-9.376c0-0.555-0.021-1.077-0.064-1.568
		c-0.043-0.49-0.16-0.917-0.352-1.279c-0.192-0.363-0.475-0.65-0.848-0.864c-0.374-0.213-0.88-0.32-1.52-0.32
		s-1.158,0.123-1.552,0.368c-0.395,0.245-0.704,0.565-0.928,0.96c-0.224,0.396-0.374,0.843-0.448,1.344
		c-0.075,0.502-0.112,1.009-0.112,1.521v9.216h-4.544v-9.28c0-0.49-0.011-0.976-0.032-1.456c-0.021-0.479-0.112-0.922-0.272-1.328
		c-0.16-0.404-0.427-0.73-0.8-0.976c-0.374-0.245-0.923-0.368-1.648-0.368c-0.214,0-0.496,0.048-0.848,0.145
		c-0.352,0.096-0.693,0.277-1.024,0.544c-0.331,0.267-0.614,0.65-0.848,1.151c-0.235,0.502-0.352,1.158-0.352,1.969v9.6h-4.544
		v-16.544H230.877z"/>
	<path d="M266.94,588.354l-11.744-4.672v-3.681l16.256,6.464v3.776l-16.256,6.432v-3.647L266.94,588.354z"/>
</g>
<rect x="113.41" y="257.531" fill="#B6EBF8" width="213.666" height="88"/>
<g enable-background="new    ">
	<path d="M130.394,285.507l11.744,4.672v3.647l-16.256-6.432v-3.776l16.256-6.464v3.681L130.394,285.507z"/>
	<path d="M161.881,270.755v4.224h-11.04v5.28h9.568v3.903h-9.568v9.44h-5.024v-22.848H161.881z"/>
	<path d="M164.409,281.746c0.405-1.076,0.981-1.994,1.728-2.752c0.747-0.757,1.643-1.344,2.688-1.76
		c1.045-0.416,2.218-0.624,3.52-0.624s2.48,0.208,3.536,0.624c1.056,0.416,1.957,1.003,2.704,1.76
		c0.747,0.758,1.322,1.676,1.728,2.752c0.405,1.078,0.608,2.278,0.608,3.601c0,1.323-0.203,2.518-0.608,3.584
		c-0.406,1.066-0.981,1.979-1.728,2.736c-0.747,0.757-1.648,1.339-2.704,1.743c-1.056,0.405-2.235,0.608-3.536,0.608
		s-2.475-0.203-3.52-0.608c-1.046-0.404-1.942-0.986-2.688-1.743c-0.747-0.758-1.323-1.67-1.728-2.736
		c-0.406-1.066-0.608-2.261-0.608-3.584C163.801,284.024,164.003,282.824,164.409,281.746z M168.537,287.282
		c0.128,0.63,0.346,1.195,0.656,1.696c0.309,0.502,0.72,0.901,1.232,1.2c0.512,0.299,1.152,0.448,1.92,0.448
		c0.768,0,1.413-0.149,1.936-0.448c0.522-0.299,0.938-0.698,1.248-1.2c0.309-0.501,0.528-1.066,0.656-1.696
		c0.128-0.629,0.192-1.274,0.192-1.936s-0.064-1.312-0.192-1.952s-0.347-1.205-0.656-1.696c-0.31-0.49-0.726-0.891-1.248-1.199
		c-0.523-0.31-1.168-0.465-1.936-0.465c-0.768,0-1.408,0.155-1.92,0.465c-0.512,0.309-0.923,0.709-1.232,1.199
		c-0.31,0.491-0.528,1.057-0.656,1.696s-0.192,1.291-0.192,1.952S168.409,286.653,168.537,287.282z"/>
	<path d="M188.185,277.059v3.072h0.064c0.213-0.513,0.501-0.987,0.864-1.425c0.362-0.437,0.778-0.81,1.248-1.119
		c0.469-0.31,0.97-0.55,1.504-0.721c0.533-0.17,1.088-0.256,1.664-0.256c0.298,0,0.629,0.054,0.992,0.16v4.224
		c-0.213-0.042-0.469-0.08-0.768-0.111c-0.299-0.032-0.587-0.048-0.864-0.048c-0.832,0-1.536,0.139-2.112,0.416
		c-0.576,0.277-1.04,0.655-1.392,1.136c-0.352,0.479-0.603,1.04-0.752,1.68c-0.149,0.64-0.224,1.334-0.224,2.08v7.456h-4.544
		v-16.544H188.185z"/>
	<path d="M200.729,277.059v2.24h0.064c0.597-0.854,1.317-1.515,2.16-1.984c0.842-0.469,1.808-0.704,2.896-0.704
		c1.045,0,2,0.203,2.864,0.608c0.864,0.405,1.52,1.12,1.968,2.144c0.49-0.725,1.157-1.365,2-1.92
		c0.842-0.555,1.84-0.832,2.992-0.832c0.875,0,1.685,0.107,2.432,0.32c0.747,0.213,1.387,0.555,1.92,1.023
		c0.533,0.47,0.949,1.083,1.248,1.841c0.298,0.757,0.448,1.669,0.448,2.735v11.072h-4.544v-9.376c0-0.555-0.021-1.077-0.064-1.568
		c-0.043-0.49-0.16-0.917-0.352-1.279c-0.192-0.363-0.475-0.65-0.848-0.864c-0.374-0.213-0.88-0.32-1.52-0.32
		s-1.158,0.123-1.552,0.368c-0.395,0.245-0.704,0.565-0.928,0.96c-0.224,0.396-0.374,0.843-0.448,1.344
		c-0.075,0.502-0.112,1.009-0.112,1.521v9.216h-4.544v-9.28c0-0.49-0.011-0.976-0.032-1.456c-0.021-0.479-0.112-0.922-0.272-1.328
		c-0.16-0.404-0.427-0.73-0.8-0.976c-0.374-0.245-0.923-0.368-1.648-0.368c-0.214,0-0.496,0.048-0.848,0.145
		c-0.352,0.096-0.693,0.277-1.024,0.544c-0.331,0.267-0.614,0.65-0.848,1.151c-0.235,0.502-0.352,1.158-0.352,1.969v9.6h-4.544
		v-16.544H200.729z"/>
</g>
<g enable-background="new    ">
	<path d="M248.474,290.051v3.552h-3.552v-3.552H248.474z M259.129,290.051v3.552h-3.552v-3.552H259.129z M269.786,290.051v3.552
		h-3.552v-3.552H269.786z"/>
</g>
<g enable-background="new    ">
	<path d="M286.585,285.507l-11.744-4.672v-3.681l16.256,6.464v3.776l-16.256,6.432v-3.647L286.585,285.507z"/>
</g>
<g enable-background="new    ">
	<path d="M309.753,272.131c-0.32,0-0.576,0.08-0.768,0.239c-0.192,0.16-0.347,0.368-0.464,0.624c-0.118,0.257-0.198,0.55-0.24,0.881
		c-0.043,0.33-0.064,0.667-0.064,1.008v5.855c0,0.747-0.112,1.382-0.336,1.904c-0.224,0.523-0.485,0.955-0.784,1.296
		c-0.299,0.342-0.603,0.598-0.912,0.768c-0.31,0.172-0.56,0.278-0.752,0.32v0.096c0.192,0.021,0.443,0.107,0.752,0.257
		c0.309,0.149,0.613,0.389,0.912,0.72s0.56,0.763,0.784,1.296s0.336,1.205,0.336,2.016v5.824c0,0.32,0.021,0.646,0.064,0.977
		c0.042,0.33,0.123,0.629,0.24,0.896c0.117,0.267,0.272,0.48,0.464,0.64c0.192,0.16,0.448,0.24,0.768,0.24h1.6v1.92h-2.24
		c-0.405,0-0.811-0.091-1.216-0.271c-0.406-0.182-0.773-0.448-1.104-0.8c-0.331-0.353-0.603-0.79-0.816-1.312
		c-0.214-0.522-0.32-1.125-0.32-1.808v-5.792c0-0.576-0.075-1.099-0.224-1.568c-0.149-0.469-0.347-0.864-0.592-1.184
		c-0.246-0.32-0.528-0.565-0.848-0.736c-0.32-0.171-0.651-0.256-0.992-0.256v-2.176c0.341,0,0.672-0.091,0.992-0.272
		c0.32-0.181,0.603-0.437,0.848-0.768c0.245-0.331,0.442-0.73,0.592-1.2c0.149-0.469,0.224-0.981,0.224-1.536v-5.824
		c0-0.683,0.106-1.285,0.32-1.808c0.213-0.522,0.485-0.96,0.816-1.312c0.331-0.352,0.698-0.618,1.104-0.8
		c0.405-0.181,0.811-0.271,1.216-0.271h2.24v1.92H309.753z"/>
</g>
<g enable-background="new    ">
	<path d="M155.346,316.195c-0.555,2.443-0.832,4.923-0.832,7.439c0,2.561,0.272,5.067,0.816,7.521s1.424,4.843,2.64,7.168h-3.776
		c-1.344-2.197-2.384-4.512-3.12-6.944c-0.736-2.432-1.104-4.906-1.104-7.424c0-1.194,0.09-2.448,0.272-3.76
		c0.181-1.312,0.448-2.618,0.8-3.92c0.352-1.301,0.789-2.561,1.312-3.776c0.522-1.216,1.136-2.336,1.84-3.359h3.808
		C156.786,311.4,155.9,313.753,155.346,316.195z"/>
</g>
<g enable-background="new    ">
	<path d="M165.569,328.979v3.552h-3.552v-3.552H165.569z M176.225,328.979v3.552h-3.552v-3.552H176.225z M186.881,328.979v3.552
		h-3.552v-3.552H186.881z"/>
</g>
<g enable-background="new    ">
	<path d="M192.881,331.299c0.565-2.421,0.848-4.89,0.848-7.407c0-2.561-0.278-5.077-0.832-7.553
		c-0.555-2.474-1.419-4.874-2.592-7.199h3.744c1.344,2.197,2.384,4.522,3.12,6.976c0.736,2.453,1.104,4.939,1.104,7.456
		c0,1.195-0.085,2.448-0.256,3.76c-0.171,1.312-0.432,2.613-0.784,3.904s-0.795,2.544-1.328,3.76s-1.152,2.325-1.856,3.328h-3.776
		C191.446,336.062,192.316,333.721,192.881,331.299z"/>
	<path d="M210.369,322.739v-3.424h16.16v3.424H210.369z M210.369,329.587v-3.424h16.16v3.424H210.369z"/>
	<path d="M241.249,324.436l-11.744-4.672v-3.681l16.256,6.464v3.776l-16.256,6.432v-3.647L241.249,324.436z"/>
	<path d="M262.112,324.436l11.744,4.672v3.647l-16.256-6.432v-3.776l16.256-6.464v3.681L262.112,324.436z"/>
	<path d="M288.544,324.436l-11.744-4.672v-3.681l16.256,6.464v3.776l-16.256,6.432v-3.647L288.544,324.436z"/>
</g>
<g>
	<path stroke="#000000" d="M506.937,184.252l-9.601-3.6v7.2L506.937,184.252z"/>
</g>
<path marker-end="url(#FilledArrow_Marker)" stroke="#000000" d="M497.336,184.252"/>
<g enable-background="new    ">
	<path d="M545.361,89.949c0.4-1.142,0.975-2.138,1.725-2.987c0.75-0.851,1.671-1.517,2.763-2c1.091-0.483,2.321-0.726,3.688-0.726
		c1.384,0,2.616,0.242,3.7,0.726c1.083,0.483,2,1.149,2.75,2c0.75,0.85,1.324,1.846,1.725,2.987s0.6,2.379,0.6,3.713
		c0,1.3-0.199,2.512-0.6,3.637s-0.975,2.104-1.725,2.938c-0.75,0.834-1.667,1.488-2.75,1.963c-1.084,0.475-2.316,0.713-3.7,0.713
		c-1.366,0-2.597-0.238-3.688-0.713c-1.092-0.475-2.013-1.129-2.763-1.963c-0.75-0.833-1.324-1.812-1.725-2.938
		s-0.6-2.337-0.6-3.637C544.762,92.328,544.961,91.091,545.361,89.949z M548.949,95.85c0.174,0.708,0.453,1.346,0.837,1.912
		s0.884,1.021,1.5,1.362c0.616,0.342,1.366,0.513,2.25,0.513s1.634-0.171,2.25-0.513c0.616-0.341,1.116-0.796,1.5-1.362
		s0.663-1.204,0.837-1.912c0.176-0.709,0.264-1.438,0.264-2.188c0-0.783-0.088-1.542-0.264-2.275
		c-0.174-0.733-0.453-1.388-0.837-1.963c-0.384-0.574-0.884-1.033-1.5-1.375c-0.616-0.341-1.366-0.512-2.25-0.512
		s-1.634,0.171-2.25,0.512c-0.616,0.342-1.116,0.801-1.5,1.375c-0.384,0.575-0.663,1.229-0.837,1.963
		c-0.176,0.733-0.264,1.492-0.264,2.275C548.686,94.412,548.773,95.141,548.949,95.85z"/>
	<path d="M573.361,102.512v-1.8h-0.075c-0.45,0.75-1.034,1.292-1.75,1.625c-0.717,0.333-1.45,0.5-2.2,0.5
		c-0.949,0-1.729-0.125-2.338-0.375c-0.607-0.25-1.087-0.604-1.438-1.062c-0.35-0.458-0.596-1.017-0.736-1.675
		c-0.143-0.658-0.213-1.388-0.213-2.188v-7.95h3.55v7.3c0,1.066,0.167,1.862,0.5,2.388c0.333,0.524,0.925,0.787,1.774,0.787
		c0.967,0,1.667-0.287,2.101-0.862c0.433-0.575,0.649-1.521,0.649-2.838v-6.774h3.551v12.925H573.361z"/>
	<path d="M586.536,89.587v2.375h-2.601v6.399c0,0.601,0.101,1,0.301,1.2c0.199,0.2,0.6,0.3,1.199,0.3c0.2,0,0.392-0.008,0.575-0.024
		s0.358-0.042,0.525-0.075v2.75c-0.3,0.05-0.634,0.083-1,0.1c-0.367,0.017-0.726,0.025-1.075,0.025c-0.55,0-1.071-0.037-1.562-0.112
		c-0.492-0.075-0.925-0.221-1.3-0.438s-0.671-0.525-0.888-0.925c-0.217-0.4-0.325-0.926-0.325-1.575v-7.625h-2.149v-2.375h2.149
		v-3.875h3.55v3.875H586.536z"/>
	<path d="M591.61,89.587v1.649h0.05c0.434-0.699,0.983-1.208,1.65-1.524c0.666-0.316,1.4-0.476,2.199-0.476
		c1.018,0,1.893,0.192,2.625,0.575c0.734,0.384,1.342,0.892,1.826,1.525c0.482,0.634,0.841,1.371,1.074,2.212
		c0.233,0.842,0.35,1.722,0.35,2.638c0,0.867-0.116,1.7-0.35,2.5s-0.588,1.509-1.062,2.125c-0.475,0.617-1.066,1.108-1.775,1.476
		c-0.708,0.366-1.537,0.55-2.486,0.55c-0.801,0-1.538-0.163-2.213-0.487c-0.676-0.325-1.229-0.805-1.662-1.438h-0.051v6.125h-3.55
		v-17.45H591.61z M596.223,99.837c0.392-0.233,0.709-0.538,0.95-0.913s0.413-0.812,0.513-1.312s0.15-1.008,0.15-1.524
		s-0.055-1.025-0.163-1.525s-0.288-0.945-0.538-1.337s-0.57-0.709-0.962-0.95s-0.871-0.362-1.438-0.362
		c-0.583,0-1.071,0.121-1.462,0.362c-0.393,0.241-0.709,0.554-0.951,0.938c-0.241,0.384-0.412,0.825-0.512,1.325
		s-0.15,1.017-0.15,1.55c0,0.517,0.055,1.024,0.162,1.524c0.109,0.5,0.283,0.938,0.525,1.312s0.562,0.68,0.963,0.913
		s0.883,0.35,1.449,0.35C595.344,100.187,595.831,100.07,596.223,99.837z"/>
	<path d="M612.26,102.512v-1.8h-0.074c-0.45,0.75-1.034,1.292-1.75,1.625c-0.717,0.333-1.45,0.5-2.2,0.5
		c-0.95,0-1.729-0.125-2.338-0.375s-1.087-0.604-1.438-1.062c-0.35-0.458-0.596-1.017-0.737-1.675s-0.213-1.388-0.213-2.188v-7.95
		h3.551v7.3c0,1.066,0.166,1.862,0.5,2.388c0.333,0.524,0.925,0.787,1.774,0.787c0.967,0,1.667-0.287,2.101-0.862
		c0.433-0.575,0.649-1.521,0.649-2.838v-6.774h3.55v12.925H612.26z"/>
	<path d="M625.436,89.587v2.375h-2.601v6.399c0,0.601,0.101,1,0.3,1.2c0.2,0.2,0.6,0.3,1.2,0.3c0.2,0,0.392-0.008,0.575-0.024
		s0.357-0.042,0.525-0.075v2.75c-0.301,0.05-0.635,0.083-1,0.1c-0.367,0.017-0.726,0.025-1.076,0.025
		c-0.549,0-1.07-0.037-1.562-0.112c-0.491-0.075-0.924-0.221-1.299-0.438s-0.672-0.525-0.889-0.925
		c-0.217-0.4-0.324-0.926-0.324-1.575v-7.625h-2.15v-2.375h2.15v-3.875h3.55v3.875H625.436z"/>
	<path d="M642.16,84.662c1.15,0,2.221,0.184,3.213,0.55c0.99,0.366,1.85,0.917,2.574,1.649c0.725,0.734,1.291,1.65,1.7,2.75
		c0.408,1.101,0.612,2.393,0.612,3.875c0,1.301-0.166,2.5-0.5,3.601c-0.334,1.1-0.838,2.05-1.512,2.85
		c-0.676,0.8-1.518,1.43-2.525,1.888c-1.009,0.459-2.196,0.688-3.562,0.688h-7.7v-17.85H642.16z M641.885,99.212
		c0.566,0,1.117-0.092,1.65-0.275c0.533-0.183,1.008-0.487,1.425-0.912s0.75-0.979,1-1.663c0.25-0.683,0.375-1.516,0.375-2.5
		c0-0.899-0.087-1.712-0.263-2.438c-0.175-0.725-0.463-1.346-0.862-1.862s-0.929-0.912-1.587-1.188
		c-0.659-0.274-1.472-0.412-2.438-0.412h-2.801v11.25H641.885z"/>
	<path d="M652.81,89.949c0.4-1.142,0.976-2.138,1.726-2.987c0.75-0.851,1.67-1.517,2.762-2s2.321-0.726,3.688-0.726
		c1.384,0,2.617,0.242,3.7,0.726s2,1.149,2.75,2c0.75,0.85,1.325,1.846,1.726,2.987c0.399,1.142,0.6,2.379,0.6,3.713
		c0,1.3-0.2,2.512-0.6,3.637c-0.4,1.125-0.976,2.104-1.726,2.938c-0.75,0.834-1.667,1.488-2.75,1.963s-2.316,0.713-3.7,0.713
		c-1.366,0-2.596-0.238-3.688-0.713s-2.012-1.129-2.762-1.963c-0.75-0.833-1.325-1.812-1.726-2.938
		c-0.399-1.125-0.6-2.337-0.6-3.637C652.21,92.328,652.41,91.091,652.81,89.949z M656.397,95.85
		c0.175,0.708,0.454,1.346,0.837,1.912c0.384,0.566,0.884,1.021,1.5,1.362c0.617,0.342,1.367,0.513,2.25,0.513
		c0.884,0,1.634-0.171,2.25-0.513c0.617-0.341,1.117-0.796,1.5-1.362c0.384-0.566,0.663-1.204,0.838-1.912
		c0.175-0.709,0.263-1.438,0.263-2.188c0-0.783-0.088-1.542-0.263-2.275s-0.454-1.388-0.838-1.963
		c-0.383-0.574-0.883-1.033-1.5-1.375c-0.616-0.341-1.366-0.512-2.25-0.512c-0.883,0-1.633,0.171-2.25,0.512
		c-0.616,0.342-1.116,0.801-1.5,1.375c-0.383,0.575-0.662,1.229-0.837,1.963s-0.263,1.492-0.263,2.275
		C656.135,94.412,656.223,95.141,656.397,95.85z"/>
	<path d="M677.959,84.662l4.176,12.274h0.05l3.95-12.274h5.525v17.85h-3.676v-12.65h-0.05l-4.375,12.65h-3.024l-4.375-12.525h-0.051
		v12.525h-3.675v-17.85H677.959z"/>
</g>
<rect x="537.504" y="160.764" fill="#CFF4FD" width="170" height="48"/>
<g enable-background="new    ">
	<path d="M555.632,187.72l13.601,6.176v2.144l-16.256-7.327v-1.984l16.256-7.36v2.176L555.632,187.72z"/>
	<path d="M574.832,192.119c0.256,0.416,0.592,0.747,1.008,0.992s0.885,0.422,1.408,0.528c0.521,0.106,1.061,0.16,1.615,0.16
		c0.427,0,0.875-0.032,1.344-0.097c0.47-0.063,0.901-0.181,1.297-0.352c0.395-0.171,0.72-0.421,0.976-0.752
		c0.257-0.331,0.384-0.752,0.384-1.265c0-0.703-0.267-1.236-0.8-1.6c-0.533-0.362-1.2-0.656-2-0.88s-1.669-0.427-2.608-0.608
		c-0.938-0.181-1.808-0.437-2.607-0.768c-0.8-0.33-1.467-0.795-2-1.392c-0.533-0.598-0.8-1.43-0.8-2.496
		c0-0.832,0.187-1.547,0.56-2.145c0.373-0.597,0.854-1.082,1.44-1.456c0.587-0.373,1.247-0.65,1.983-0.832
		c0.736-0.181,1.467-0.271,2.192-0.271c0.938,0,1.802,0.08,2.592,0.239c0.789,0.16,1.488,0.438,2.097,0.832
		c0.607,0.396,1.092,0.929,1.455,1.601s0.576,1.51,0.641,2.512h-2.721c-0.043-0.533-0.182-0.976-0.416-1.328
		c-0.234-0.352-0.533-0.634-0.896-0.848c-0.362-0.213-0.763-0.368-1.2-0.464c-0.438-0.097-0.88-0.145-1.328-0.145
		c-0.405,0-0.815,0.032-1.231,0.097c-0.416,0.063-0.796,0.176-1.136,0.336c-0.342,0.16-0.619,0.373-0.832,0.64
		c-0.214,0.267-0.32,0.613-0.32,1.04c0,0.47,0.165,0.859,0.496,1.168c0.33,0.31,0.752,0.565,1.264,0.768
		c0.512,0.203,1.088,0.374,1.729,0.513c0.64,0.139,1.279,0.283,1.92,0.432c0.682,0.149,1.349,0.331,2,0.544
		c0.65,0.214,1.227,0.496,1.728,0.849c0.501,0.352,0.907,0.795,1.216,1.327c0.309,0.534,0.465,1.195,0.465,1.984
		c0,1.003-0.209,1.835-0.625,2.496s-0.959,1.195-1.631,1.6c-0.673,0.406-1.43,0.688-2.272,0.849s-1.681,0.239-2.513,0.239
		c-0.917,0-1.791-0.096-2.623-0.287c-0.832-0.192-1.568-0.507-2.209-0.944c-0.64-0.438-1.151-1.013-1.535-1.729
		c-0.385-0.714-0.598-1.584-0.641-2.607h2.721C574.437,191.197,574.576,191.703,574.832,192.119z"/>
	<path d="M600.463,194.76c-1.236,0.938-2.795,1.407-4.672,1.407c-1.322,0-2.469-0.213-3.439-0.64s-1.787-1.023-2.447-1.792
		c-0.662-0.768-1.158-1.685-1.488-2.752c-0.332-1.066-0.518-2.229-0.561-3.488c0-1.258,0.192-2.41,0.576-3.456
		c0.384-1.045,0.922-1.951,1.616-2.72c0.692-0.768,1.515-1.365,2.464-1.792s1.988-0.64,3.12-0.64c1.472,0,2.692,0.304,3.663,0.912
		c0.971,0.607,1.75,1.381,2.337,2.319c0.587,0.939,0.991,1.963,1.216,3.072s0.314,2.165,0.271,3.168h-12.383
		c-0.021,0.726,0.063,1.413,0.256,2.064c0.191,0.65,0.5,1.227,0.928,1.728c0.426,0.502,0.971,0.901,1.632,1.2
		s1.44,0.448,2.336,0.448c1.151,0,2.096-0.267,2.832-0.801c0.735-0.532,1.221-1.344,1.456-2.432h2.688
		C602.5,192.424,601.701,193.821,600.463,194.76z M599.808,184.136c-0.245-0.576-0.576-1.072-0.992-1.488s-0.907-0.746-1.472-0.992
		c-0.565-0.245-1.189-0.368-1.872-0.368c-0.704,0-1.339,0.123-1.904,0.368c-0.565,0.246-1.051,0.582-1.456,1.008
		c-0.405,0.428-0.725,0.924-0.959,1.488c-0.236,0.565-0.374,1.168-0.416,1.808h9.504
		C600.197,185.319,600.053,184.712,599.808,184.136z"/>
	<path d="M615.823,182.151c-0.683-0.576-1.601-0.864-2.752-0.864c-0.981,0-1.804,0.182-2.464,0.544
		c-0.662,0.363-1.189,0.844-1.584,1.44c-0.395,0.598-0.678,1.285-0.848,2.063c-0.172,0.779-0.256,1.584-0.256,2.416
		c0,0.769,0.09,1.516,0.271,2.24c0.181,0.726,0.464,1.371,0.848,1.937c0.385,0.565,0.885,1.019,1.504,1.359
		c0.619,0.342,1.355,0.513,2.208,0.513c1.345,0,2.395-0.353,3.152-1.057c0.757-0.704,1.221-1.695,1.392-2.976h2.784
		c-0.299,2.048-1.062,3.627-2.288,4.736s-2.896,1.663-5.008,1.663c-1.259,0-2.373-0.202-3.344-0.607s-1.781-0.981-2.432-1.729
		c-0.651-0.746-1.143-1.637-1.473-2.672c-0.331-1.034-0.496-2.17-0.496-3.408c0-1.236,0.16-2.395,0.48-3.472
		s0.805-2.016,1.455-2.815c0.65-0.801,1.467-1.43,2.449-1.889c0.98-0.458,2.122-0.688,3.424-0.688c0.938,0,1.818,0.111,2.64,0.336
		c0.821,0.224,1.546,0.57,2.176,1.04c0.629,0.47,1.146,1.062,1.552,1.775c0.405,0.716,0.661,1.563,0.769,2.544h-2.816
		C616.953,183.538,616.506,182.728,615.823,182.151z"/>
	<path d="M630.191,179.271v2.4h-3.297v10.271c0,0.32,0.027,0.576,0.08,0.769c0.053,0.191,0.154,0.341,0.305,0.447
		c0.148,0.107,0.356,0.176,0.623,0.208c0.268,0.032,0.613,0.048,1.041,0.048h1.248v2.4h-2.08c-0.705,0-1.308-0.048-1.809-0.144
		c-0.502-0.097-0.906-0.272-1.216-0.528s-0.539-0.618-0.688-1.088c-0.148-0.469-0.224-1.088-0.224-1.856v-10.527h-2.815v-2.4h2.815
		v-4.96h2.72v4.96H630.191z"/>
	<path d="M633.358,176.296v-3.328h2.72v3.328H633.358z M636.078,179.271v16.544h-2.72v-16.544H636.078z"/>
	<path d="M639.918,184.151c0.341-1.056,0.854-1.973,1.536-2.752c0.683-0.778,1.524-1.392,2.528-1.84
		c1.002-0.448,2.154-0.672,3.455-0.672c1.322,0,2.48,0.224,3.473,0.672s1.828,1.062,2.512,1.84c0.683,0.779,1.194,1.696,1.536,2.752
		c0.341,1.056,0.512,2.192,0.512,3.408s-0.171,2.347-0.512,3.392c-0.342,1.046-0.854,1.958-1.536,2.736
		c-0.684,0.779-1.52,1.387-2.512,1.824c-0.992,0.437-2.15,0.655-3.473,0.655c-1.301,0-2.453-0.219-3.455-0.655
		c-1.004-0.438-1.846-1.045-2.528-1.824c-0.683-0.778-1.195-1.69-1.536-2.736c-0.342-1.045-0.512-2.176-0.512-3.392
		S639.576,185.207,639.918,184.151z M642.686,190.231c0.268,0.779,0.635,1.43,1.104,1.952c0.469,0.522,1.019,0.923,1.647,1.2
		s1.297,0.416,2,0.416c0.705,0,1.371-0.139,2-0.416s1.179-0.678,1.648-1.2c0.469-0.522,0.837-1.173,1.104-1.952
		c0.268-0.778,0.4-1.669,0.4-2.672s-0.133-1.894-0.4-2.672c-0.267-0.778-0.635-1.435-1.104-1.969
		c-0.47-0.532-1.02-0.938-1.648-1.216c-0.629-0.276-1.295-0.416-2-0.416c-0.703,0-1.371,0.14-2,0.416
		c-0.629,0.277-1.179,0.684-1.647,1.216c-0.47,0.534-0.837,1.19-1.104,1.969c-0.267,0.778-0.399,1.669-0.399,2.672
		S642.419,189.453,642.686,190.231z"/>
	<path d="M661.229,179.271v2.624h0.063c1.131-2.005,2.924-3.008,5.377-3.008c1.088,0,1.994,0.149,2.72,0.447
		c0.726,0.3,1.312,0.716,1.76,1.248c0.448,0.534,0.763,1.168,0.944,1.904c0.181,0.736,0.271,1.552,0.271,2.448v10.88h-2.72v-11.2
		c0-1.023-0.299-1.834-0.896-2.432c-0.598-0.597-1.42-0.896-2.465-0.896c-0.832,0-1.552,0.128-2.16,0.385
		c-0.607,0.256-1.114,0.618-1.52,1.088c-0.405,0.469-0.709,1.019-0.912,1.647c-0.203,0.63-0.304,1.317-0.304,2.064v9.344h-2.72
		v-16.544H661.229z"/>
	<path d="M689.485,187.72l-13.6-6.177v-2.176l16.256,7.36v1.984l-16.256,7.327v-2.144L689.485,187.72z"/>
</g>
<rect x="585.693" y="276.984" fill="#CFF4FD" width="132" height="48"/>
<g enable-background="new    ">
	<path d="M603.82,303.94l13.601,6.176v2.144l-16.256-7.327v-1.984l16.256-7.36v2.176L603.82,303.94z"/>
	<path d="M619.276,297.893v-2.4h2.784v-2.464c0-1.344,0.389-2.362,1.168-3.057c0.778-0.692,1.914-1.039,3.408-1.039
		c0.256,0,0.549,0.021,0.88,0.063c0.331,0.043,0.624,0.107,0.88,0.192v2.367c-0.234-0.085-0.49-0.144-0.768-0.176
		s-0.533-0.048-0.769-0.048c-0.661,0-1.173,0.128-1.536,0.384s-0.543,0.747-0.543,1.473v2.304h3.199v2.4h-3.199v14.144h-2.721
		v-14.144H619.276z"/>
	<path d="M630.028,300.372c0.341-1.056,0.853-1.973,1.536-2.752c0.682-0.778,1.525-1.392,2.527-1.84
		c1.003-0.448,2.154-0.672,3.457-0.672c1.322,0,2.479,0.224,3.471,0.672c0.992,0.448,1.83,1.062,2.513,1.84
		c0.683,0.779,1.194,1.696,1.536,2.752c0.341,1.056,0.512,2.192,0.512,3.408s-0.171,2.347-0.512,3.392
		c-0.342,1.046-0.854,1.958-1.536,2.736c-0.683,0.779-1.521,1.387-2.513,1.824c-0.991,0.437-2.148,0.655-3.471,0.655
		c-1.303,0-2.454-0.219-3.457-0.655c-1.002-0.438-1.846-1.045-2.527-1.824c-0.684-0.778-1.195-1.69-1.536-2.736
		c-0.342-1.045-0.513-2.176-0.513-3.392S629.687,301.428,630.028,300.372z M632.797,306.452c0.266,0.779,0.634,1.43,1.104,1.952
		c0.469,0.522,1.019,0.923,1.648,1.2c0.629,0.277,1.295,0.416,2,0.416c0.703,0,1.37-0.139,2-0.416
		c0.629-0.277,1.178-0.678,1.647-1.2c0.469-0.522,0.837-1.173,1.104-1.952c0.266-0.778,0.399-1.669,0.399-2.672
		s-0.134-1.894-0.399-2.672c-0.268-0.778-0.636-1.435-1.104-1.969c-0.47-0.532-1.019-0.938-1.647-1.216
		c-0.63-0.276-1.297-0.416-2-0.416c-0.705,0-1.371,0.14-2,0.416c-0.63,0.277-1.18,0.684-1.648,1.216
		c-0.47,0.534-0.838,1.19-1.104,1.969c-0.268,0.778-0.4,1.669-0.4,2.672S632.529,305.674,632.797,306.452z"/>
	<path d="M651.244,295.492v3.488h0.064c0.66-1.345,1.471-2.336,2.432-2.977c0.959-0.64,2.176-0.938,3.647-0.896v2.88
		c-1.088,0-2.016,0.149-2.784,0.448c-0.768,0.299-1.387,0.735-1.855,1.312c-0.47,0.576-0.811,1.275-1.023,2.096
		c-0.215,0.822-0.32,1.766-0.32,2.832v7.36h-2.721v-16.544H651.244z"/>
	<path d="M661.996,295.492v2.432h0.063c1.237-1.877,3.019-2.815,5.345-2.815c1.023,0,1.951,0.213,2.783,0.64s1.418,1.152,1.76,2.176
		c0.555-0.896,1.285-1.589,2.192-2.08c0.907-0.49,1.903-0.735,2.992-0.735c0.832,0,1.584,0.091,2.256,0.271
		c0.672,0.182,1.248,0.464,1.728,0.849c0.48,0.384,0.854,0.88,1.121,1.487c0.266,0.608,0.399,1.339,0.399,2.192v12.128h-2.72
		v-10.848c0-0.513-0.043-0.992-0.129-1.44c-0.085-0.448-0.245-0.837-0.479-1.168c-0.235-0.33-0.56-0.592-0.976-0.784
		c-0.416-0.191-0.955-0.288-1.616-0.288c-1.345,0-2.399,0.385-3.168,1.152s-1.152,1.792-1.152,3.072v10.304h-2.72v-10.848
		c0-0.533-0.048-1.024-0.145-1.473c-0.096-0.447-0.262-0.837-0.496-1.168c-0.234-0.33-0.549-0.586-0.943-0.768
		c-0.395-0.181-0.901-0.272-1.52-0.272c-0.79,0-1.468,0.16-2.033,0.48c-0.564,0.32-1.023,0.704-1.375,1.151
		c-0.353,0.448-0.608,0.912-0.769,1.393c-0.159,0.479-0.239,0.88-0.239,1.2v10.304h-2.721v-16.544H661.996z"/>
	<path d="M699.756,303.94l-13.6-6.177v-2.176l16.256,7.36v1.984l-16.256,7.327v-2.144L699.756,303.94z"/>
</g>
<rect x="633.882" y="373.362" fill="#CFF4FD" width="199" height="48"/>
<g enable-background="new    ">
	<path d="M652.01,400.318l13.6,6.176v2.144l-16.256-7.327v-1.984l16.256-7.36v2.176L652.01,400.318z"/>
	<path d="M669.289,388.895v-3.328h2.721v3.328H669.289z M672.01,391.87v16.544h-2.721V391.87H672.01z"/>
	<path d="M678.793,391.87v2.624h0.064c1.131-2.005,2.922-3.008,5.375-3.008c1.089,0,1.995,0.149,2.721,0.447
		c0.725,0.3,1.312,0.716,1.76,1.248c0.448,0.534,0.763,1.168,0.944,1.904c0.181,0.736,0.272,1.552,0.272,2.448v10.88h-2.721v-11.2
		c0-1.023-0.299-1.834-0.896-2.432c-0.598-0.597-1.418-0.896-2.463-0.896c-0.832,0-1.553,0.128-2.16,0.385
		c-0.608,0.256-1.115,0.618-1.521,1.088c-0.405,0.469-0.71,1.019-0.912,1.647c-0.202,0.63-0.304,1.317-0.304,2.064v9.344h-2.721
		V391.87H678.793z"/>
	<path d="M696.841,391.87v2.24h0.064c0.448-0.917,1.151-1.584,2.112-2c0.959-0.416,2.016-0.624,3.168-0.624
		c1.279,0,2.395,0.234,3.344,0.704c0.949,0.469,1.738,1.104,2.367,1.903c0.629,0.801,1.104,1.724,1.425,2.769
		c0.319,1.045,0.479,2.154,0.479,3.328c0,1.173-0.154,2.282-0.464,3.327c-0.31,1.046-0.778,1.958-1.407,2.736
		c-0.631,0.779-1.42,1.393-2.369,1.84c-0.949,0.448-2.053,0.672-3.312,0.672c-0.405,0-0.858-0.043-1.36-0.128
		c-0.501-0.085-0.997-0.224-1.488-0.416c-0.49-0.191-0.954-0.452-1.391-0.783c-0.438-0.331-0.807-0.741-1.104-1.232h-0.064v8.512
		h-2.72V391.87H696.841z M706.617,397.742c-0.203-0.736-0.512-1.393-0.928-1.968c-0.416-0.576-0.949-1.035-1.601-1.376
		c-0.651-0.342-1.413-0.513-2.288-0.513c-0.917,0-1.695,0.182-2.336,0.544c-0.64,0.363-1.162,0.838-1.568,1.425
		c-0.404,0.587-0.698,1.253-0.879,2c-0.182,0.746-0.272,1.504-0.272,2.271c0,0.812,0.096,1.595,0.288,2.353
		c0.191,0.757,0.496,1.424,0.912,2c0.416,0.575,0.954,1.039,1.615,1.392c0.662,0.352,1.461,0.528,2.4,0.528
		c0.938,0,1.723-0.182,2.352-0.544c0.629-0.363,1.137-0.843,1.521-1.44c0.384-0.597,0.661-1.28,0.832-2.048
		c0.171-0.769,0.256-1.558,0.256-2.368C706.921,399.23,706.819,398.479,706.617,397.742z"/>
	<path d="M724.137,408.414v-2.624h-0.064c-0.576,1.024-1.312,1.776-2.207,2.256c-0.896,0.48-1.953,0.72-3.168,0.72
		c-1.089,0-1.996-0.144-2.721-0.432c-0.726-0.288-1.312-0.698-1.76-1.231c-0.448-0.533-0.764-1.169-0.944-1.904
		c-0.181-0.736-0.272-1.552-0.272-2.448v-10.88h2.721v11.2c0,1.023,0.299,1.835,0.896,2.432c0.597,0.598,1.418,0.896,2.463,0.896
		c0.832,0,1.553-0.128,2.16-0.385c0.608-0.256,1.115-0.618,1.521-1.088c0.405-0.469,0.709-1.019,0.912-1.647
		c0.202-0.629,0.304-1.317,0.304-2.064v-9.344h2.721v16.544H724.137z"/>
	<path d="M737.865,391.87v2.4h-3.297v10.271c0,0.32,0.027,0.576,0.08,0.769c0.053,0.191,0.154,0.341,0.305,0.447
		c0.148,0.107,0.356,0.176,0.623,0.208c0.268,0.032,0.613,0.048,1.041,0.048h1.248v2.4h-2.08c-0.705,0-1.308-0.048-1.809-0.144
		c-0.502-0.097-0.906-0.272-1.216-0.528s-0.539-0.618-0.688-1.088c-0.148-0.469-0.224-1.088-0.224-1.856v-10.527h-2.815v-2.4h2.815
		v-4.96h2.72v4.96H737.865z"/>
	<path d="M754.824,404.862v3.552h-3.553v-3.552H754.824z M765.48,404.862v3.552h-3.553v-3.552H765.48z M776.137,404.862v3.552
		h-3.553v-3.552H776.137z"/>
	<path d="M799.848,385.022l-9.472,23.903h-2.304l9.439-23.903H799.848z"/>
	<path d="M814.344,400.318l-13.6-6.177v-2.176l16.256,7.36v1.984l-16.256,7.327v-2.144L814.344,400.318z"/>
</g>
<rect x="633.882" y="445.229" fill="#CFF4FD" width="220" height="48"/>
<g enable-background="new    ">
	<path d="M653.01,472.185l13.6,6.176v2.144l-16.256-7.327v-1.984l16.256-7.36v2.176L653.01,472.185z"/>
	<path d="M672.945,457.433v8.544h0.064c0.447-0.917,1.152-1.584,2.111-2c0.961-0.416,2.017-0.624,3.168-0.624
		c1.28,0,2.395,0.234,3.344,0.704c0.949,0.469,1.739,1.104,2.369,1.903c0.629,0.801,1.104,1.724,1.424,2.769s0.48,2.154,0.48,3.328
		c0,1.173-0.156,2.282-0.465,3.327c-0.31,1.046-0.779,1.958-1.408,2.736c-0.629,0.779-1.418,1.393-2.367,1.84
		c-0.95,0.448-2.055,0.672-3.312,0.672c-0.405,0-0.859-0.043-1.359-0.128c-0.502-0.085-0.998-0.224-1.488-0.416
		c-0.491-0.191-0.955-0.452-1.393-0.783s-0.805-0.741-1.104-1.232h-0.064v2.208h-2.72v-22.848H672.945z M682.722,469.608
		c-0.203-0.736-0.513-1.393-0.929-1.968c-0.416-0.576-0.949-1.035-1.6-1.376c-0.65-0.342-1.413-0.513-2.287-0.513
		c-0.918,0-1.697,0.182-2.337,0.544c-0.64,0.363-1.163,0.838-1.567,1.425c-0.406,0.587-0.699,1.253-0.881,2
		c-0.182,0.746-0.271,1.504-0.271,2.271c0,0.812,0.096,1.595,0.288,2.353c0.192,0.757,0.495,1.424,0.911,2
		c0.416,0.575,0.955,1.039,1.617,1.392c0.66,0.352,1.461,0.528,2.399,0.528s1.723-0.182,2.353-0.544
		c0.629-0.363,1.136-0.843,1.52-1.44c0.385-0.597,0.661-1.28,0.832-2.048c0.17-0.769,0.256-1.558,0.256-2.368
		C683.025,471.097,682.924,470.345,682.722,469.608z"/>
	<path d="M700.241,480.28v-2.624h-0.063c-0.576,1.024-1.312,1.776-2.209,2.256c-0.896,0.48-1.951,0.72-3.168,0.72
		c-1.088,0-1.994-0.144-2.72-0.432s-1.312-0.698-1.76-1.231s-0.763-1.169-0.944-1.904c-0.182-0.736-0.271-1.552-0.271-2.448v-10.88
		h2.72v11.2c0,1.023,0.298,1.835,0.896,2.432c0.598,0.598,1.419,0.896,2.465,0.896c0.832,0,1.552-0.128,2.16-0.385
		c0.607-0.256,1.113-0.618,1.52-1.088c0.404-0.469,0.709-1.019,0.912-1.647c0.202-0.629,0.304-1.317,0.304-2.064v-9.344h2.72v16.544
		H700.241z"/>
	<path d="M713.969,463.736v2.4h-3.295v10.271c0,0.32,0.025,0.576,0.079,0.769c0.054,0.191,0.155,0.341,0.304,0.447
		c0.149,0.107,0.357,0.176,0.625,0.208c0.266,0.032,0.612,0.048,1.039,0.048h1.248v2.4h-2.08c-0.703,0-1.307-0.048-1.808-0.144
		c-0.501-0.097-0.907-0.272-1.216-0.528c-0.31-0.256-0.539-0.618-0.688-1.088c-0.15-0.469-0.225-1.088-0.225-1.856v-10.527h-2.816
		v-2.4h2.816v-4.96h2.721v4.96H713.969z"/>
	<path d="M724.049,463.736v2.4h-3.296v10.271c0,0.32,0.026,0.576,0.079,0.769c0.054,0.191,0.155,0.341,0.305,0.447
		c0.148,0.107,0.357,0.176,0.624,0.208s0.612,0.048,1.04,0.048h1.248v2.4h-2.08c-0.704,0-1.307-0.048-1.809-0.144
		c-0.501-0.097-0.906-0.272-1.215-0.528c-0.311-0.256-0.539-0.618-0.688-1.088c-0.149-0.469-0.224-1.088-0.224-1.856v-10.527h-2.816
		v-2.4h2.816v-4.96h2.72v4.96H724.049z"/>
	<path d="M726.672,468.616c0.342-1.056,0.854-1.973,1.537-2.752c0.682-0.778,1.524-1.392,2.527-1.84
		c1.002-0.448,2.154-0.672,3.456-0.672c1.322,0,2.479,0.224,3.472,0.672s1.829,1.062,2.512,1.84
		c0.684,0.779,1.195,1.696,1.537,2.752c0.34,1.056,0.512,2.192,0.512,3.408s-0.172,2.347-0.512,3.392
		c-0.342,1.046-0.854,1.958-1.537,2.736c-0.683,0.779-1.52,1.387-2.512,1.824c-0.992,0.437-2.149,0.655-3.472,0.655
		c-1.302,0-2.454-0.219-3.456-0.655c-1.003-0.438-1.846-1.045-2.527-1.824c-0.684-0.778-1.195-1.69-1.537-2.736
		c-0.342-1.045-0.512-2.176-0.512-3.392S726.33,469.672,726.672,468.616z M729.44,474.696c0.267,0.779,0.634,1.43,1.104,1.952
		c0.469,0.522,1.018,0.923,1.647,1.2c0.629,0.277,1.296,0.416,2,0.416s1.37-0.139,2-0.416c0.629-0.277,1.179-0.678,1.647-1.2
		s0.838-1.173,1.104-1.952c0.267-0.778,0.399-1.669,0.399-2.672s-0.133-1.894-0.399-2.672s-0.636-1.435-1.104-1.969
		c-0.469-0.532-1.019-0.938-1.647-1.216c-0.63-0.276-1.296-0.416-2-0.416s-1.371,0.14-2,0.416c-0.63,0.277-1.179,0.684-1.647,1.216
		c-0.471,0.534-0.838,1.19-1.104,1.969s-0.399,1.669-0.399,2.672S729.174,473.918,729.44,474.696z"/>
	<path d="M747.984,463.736v2.624h0.063c1.131-2.005,2.923-3.008,5.376-3.008c1.088,0,1.994,0.149,2.721,0.447
		c0.725,0.3,1.312,0.716,1.76,1.248c0.447,0.534,0.762,1.168,0.943,1.904s0.272,1.552,0.272,2.448v10.88h-2.72v-11.2
		c0-1.023-0.299-1.834-0.896-2.432c-0.598-0.597-1.419-0.896-2.464-0.896c-0.832,0-1.552,0.128-2.16,0.385
		c-0.608,0.256-1.114,0.618-1.521,1.088c-0.404,0.469-0.709,1.019-0.912,1.647c-0.202,0.63-0.303,1.317-0.303,2.064v9.344h-2.721
		v-16.544H747.984z"/>
	<path d="M777.168,476.729v3.552h-3.553v-3.552H777.168z M787.824,476.729v3.552h-3.553v-3.552H787.824z M798.48,476.729v3.552
		h-3.553v-3.552H798.48z"/>
	<path d="M822.191,456.889l-9.472,23.903h-2.304l9.439-23.903H822.191z"/>
	<path d="M836.688,472.185l-13.601-6.177v-2.176l16.255,7.36v1.984l-16.255,7.327v-2.144L836.688,472.185z"/>
</g>
<g>
	<path stroke="#000000" d="M506.937,301.164l-9.601-3.6v7.2L506.937,301.164z"/>
</g>
<path marker-end="url(#FilledArrow_Marker)" stroke="#000000" d="M497.336,301.164"/>
<g>
	<path stroke="#000000" d="M506.937,399.616l-9.601-3.6v7.199L506.937,399.616z"/>
</g>
<path marker-end="url(#FilledArrow_Marker)" stroke="#000000" d="M497.336,399.616"/>
<g>
	<path stroke="#000000" d="M507.102,469.722l-9.6-3.6v7.2L507.102,469.722z"/>
</g>
<path marker-end="url(#FilledArrow_Marker)" stroke="#000000" d="M497.502,469.722"/>
<g>
	<path stroke="#000000" d="M507.102,658.722l-9.6-3.6v7.2L507.102,658.722z"/>
</g>
<path marker-end="url(#FilledArrow_Marker)" stroke="#000000" d="M497.502,658.722"/>
<rect x="537.496" y="195.59" fill="#CFF4FD" width="23.764" height="615.119"/>
<rect x="585.686" y="314.646" fill="#CFF4FD" width="23.764" height="291.969"/>
<rect x="586.771" y="635.149" fill="#CFF4FD" width="267" height="48"/>
<g enable-background="new    ">
	<path d="M603.899,662.105l13.601,6.176v2.144l-16.256-7.327v-1.984l16.256-7.36v2.176L603.899,662.105z"/>
	<path d="M623.579,653.657v2.624h0.063c1.131-2.005,2.924-3.008,5.377-3.008c1.088,0,1.994,0.149,2.72,0.447
		c0.726,0.3,1.312,0.716,1.76,1.248c0.448,0.534,0.763,1.168,0.944,1.904c0.181,0.736,0.271,1.552,0.271,2.448v10.88h-2.72v-11.2
		c0-1.023-0.299-1.834-0.896-2.432c-0.598-0.597-1.42-0.896-2.465-0.896c-0.832,0-1.552,0.128-2.16,0.385
		c-0.607,0.256-1.114,0.618-1.52,1.088c-0.405,0.469-0.709,1.019-0.912,1.647c-0.203,0.63-0.304,1.317-0.304,2.064v9.344h-2.72
		v-16.544H623.579z"/>
	<path d="M653.467,670.137c-0.469,0.277-1.119,0.416-1.951,0.416c-0.705,0-1.265-0.197-1.681-0.592s-0.624-1.04-0.624-1.936
		c-0.746,0.896-1.615,1.541-2.607,1.936s-2.064,0.592-3.217,0.592c-0.746,0-1.455-0.085-2.127-0.256
		c-0.672-0.17-1.254-0.437-1.744-0.8c-0.491-0.362-0.881-0.837-1.168-1.424c-0.289-0.587-0.433-1.296-0.433-2.128
		c0-0.938,0.16-1.707,0.479-2.304c0.32-0.598,0.742-1.083,1.265-1.456s1.12-0.656,1.792-0.849c0.672-0.191,1.359-0.352,2.064-0.479
		c0.746-0.149,1.455-0.262,2.127-0.336c0.672-0.075,1.265-0.182,1.776-0.32c0.513-0.139,0.917-0.341,1.216-0.608
		c0.299-0.266,0.448-0.655,0.448-1.168c0-0.597-0.112-1.076-0.336-1.439c-0.224-0.362-0.512-0.641-0.864-0.832
		c-0.352-0.192-0.746-0.32-1.184-0.384c-0.438-0.064-0.869-0.097-1.296-0.097c-1.152,0-2.112,0.22-2.88,0.656
		c-0.768,0.438-1.184,1.264-1.248,2.48h-2.721c0.043-1.024,0.256-1.889,0.641-2.593c0.384-0.704,0.896-1.274,1.535-1.712
		c0.641-0.437,1.371-0.752,2.193-0.943c0.82-0.192,1.7-0.288,2.639-0.288c0.747,0,1.488,0.054,2.225,0.16s1.402,0.324,2,0.654
		s1.077,0.793,1.439,1.389c0.363,0.596,0.545,1.373,0.545,2.331v8.493c0,0.64,0.037,1.107,0.111,1.405s0.325,0.447,0.752,0.447
		c0.234,0,0.512-0.043,0.832-0.128V670.137z M649.051,661.657c-0.342,0.255-0.789,0.44-1.344,0.558s-1.136,0.212-1.744,0.286
		c-0.607,0.074-1.221,0.16-1.84,0.255c-0.619,0.096-1.174,0.25-1.664,0.462s-0.891,0.515-1.199,0.907
		c-0.311,0.394-0.465,0.929-0.465,1.608c0,0.445,0.091,0.822,0.272,1.13c0.181,0.309,0.416,0.558,0.704,0.749
		c0.287,0.19,0.623,0.329,1.008,0.414c0.384,0.085,0.789,0.127,1.216,0.127c0.896,0,1.664-0.122,2.304-0.366
		c0.641-0.244,1.163-0.552,1.568-0.924c0.404-0.371,0.704-0.774,0.896-1.21c0.191-0.435,0.287-0.844,0.287-1.226V661.657z"/>
	<path d="M660.539,670.201l-6.145-16.544h3.04l4.64,13.792h0.064l4.512-13.792h2.848l-6.047,16.544H660.539z"/>
	<path d="M685.019,662.105l-13.6-6.177v-2.176l16.256,7.36v1.984l-16.256,7.327v-2.144L685.019,662.105z"/>
	<path d="M705.146,666.649v3.552h-3.553v-3.552H705.146z M715.803,666.649v3.552h-3.553v-3.552H715.803z M726.459,666.649v3.552
		h-3.553v-3.552H726.459z"/>
	<path d="M743.066,662.105l13.6,6.176v2.144l-16.256-7.327v-1.984l16.256-7.36v2.176L743.066,662.105z"/>
	<path d="M769.37,646.81l-9.472,23.903h-2.305l9.44-23.903H769.37z"/>
	<path d="M773.402,653.657v2.624h0.063c1.131-2.005,2.923-3.008,5.376-3.008c1.088,0,1.995,0.149,2.72,0.447
		c0.726,0.3,1.312,0.716,1.761,1.248c0.447,0.534,0.762,1.168,0.943,1.904s0.272,1.552,0.272,2.448v10.88h-2.72v-11.2
		c0-1.023-0.3-1.834-0.896-2.432c-0.598-0.597-1.419-0.896-2.464-0.896c-0.832,0-1.552,0.128-2.16,0.385
		c-0.608,0.256-1.114,0.618-1.521,1.088c-0.404,0.469-0.709,1.019-0.912,1.647c-0.202,0.63-0.303,1.317-0.303,2.064v9.344h-2.721
		v-16.544H773.402z"/>
	<path d="M803.29,670.137c-0.47,0.277-1.12,0.416-1.952,0.416c-0.704,0-1.264-0.197-1.68-0.592s-0.624-1.04-0.624-1.936
		c-0.747,0.896-1.616,1.541-2.608,1.936s-2.063,0.592-3.216,0.592c-0.747,0-1.456-0.085-2.128-0.256
		c-0.672-0.17-1.254-0.437-1.744-0.8c-0.491-0.362-0.88-0.837-1.168-1.424s-0.432-1.296-0.432-2.128
		c0-0.938,0.159-1.707,0.479-2.304c0.32-0.598,0.741-1.083,1.265-1.456c0.522-0.373,1.119-0.656,1.792-0.849
		c0.672-0.191,1.359-0.352,2.063-0.479c0.746-0.149,1.456-0.262,2.128-0.336c0.672-0.075,1.264-0.182,1.776-0.32
		c0.512-0.139,0.917-0.341,1.216-0.608c0.299-0.266,0.448-0.655,0.448-1.168c0-0.597-0.112-1.076-0.336-1.439
		c-0.225-0.362-0.513-0.641-0.864-0.832c-0.353-0.192-0.747-0.32-1.185-0.384c-0.438-0.064-0.869-0.097-1.296-0.097
		c-1.151,0-2.111,0.22-2.88,0.656c-0.768,0.438-1.184,1.264-1.248,2.48h-2.72c0.043-1.024,0.256-1.889,0.64-2.593
		c0.385-0.704,0.896-1.274,1.536-1.712c0.641-0.437,1.371-0.752,2.192-0.943c0.821-0.192,1.701-0.288,2.64-0.288
		c0.747,0,1.488,0.054,2.225,0.16c0.735,0.106,1.402,0.324,2,0.654c0.597,0.33,1.076,0.793,1.439,1.389
		c0.362,0.596,0.544,1.373,0.544,2.331v8.493c0,0.64,0.037,1.107,0.112,1.405c0.074,0.298,0.325,0.447,0.752,0.447
		c0.234,0,0.512-0.043,0.832-0.128V670.137z M798.874,661.657c-0.342,0.255-0.79,0.44-1.344,0.558
		c-0.556,0.117-1.137,0.212-1.744,0.286c-0.608,0.074-1.222,0.16-1.84,0.255c-0.619,0.096-1.174,0.25-1.664,0.462
		c-0.491,0.212-0.892,0.515-1.2,0.907c-0.31,0.394-0.464,0.929-0.464,1.608c0,0.445,0.09,0.822,0.271,1.13
		c0.182,0.309,0.416,0.558,0.704,0.749c0.288,0.19,0.624,0.329,1.008,0.414c0.385,0.085,0.789,0.127,1.217,0.127
		c0.896,0,1.664-0.122,2.304-0.366s1.162-0.552,1.567-0.924c0.405-0.371,0.704-0.774,0.896-1.21
		c0.192-0.435,0.288-0.844,0.288-1.226V661.657z"/>
	<path d="M810.361,670.201l-6.144-16.544h3.04l4.64,13.792h0.064l4.512-13.792h2.848l-6.048,16.544H810.361z"/>
	<path d="M834.842,662.105l-13.601-6.177v-2.176l16.256,7.36v1.984l-16.256,7.327v-2.144L834.842,662.105z"/>
</g>
<rect x="588.527" y="558.614" fill="#CFF4FD" width="143" height="48"/>
<g enable-background="new    ">
	<path d="M604.655,585.57l13.601,6.176v2.144L602,586.562v-1.984l16.256-7.36v2.176L604.655,585.57z"/>
	<path d="M630.959,570.274l-9.473,23.903h-2.303l9.439-23.903H630.959z"/>
	<path d="M630.767,579.522v-2.4h2.784v-2.464c0-1.344,0.389-2.362,1.168-3.057c0.778-0.692,1.914-1.039,3.408-1.039
		c0.256,0,0.549,0.021,0.88,0.063c0.331,0.043,0.624,0.107,0.88,0.192v2.367c-0.234-0.085-0.49-0.144-0.768-0.176
		s-0.533-0.048-0.769-0.048c-0.661,0-1.173,0.128-1.536,0.384s-0.543,0.747-0.543,1.473v2.304h3.199v2.4h-3.199v14.144h-2.721
		v-14.144H630.767z"/>
	<path d="M641.519,582.002c0.341-1.056,0.853-1.973,1.536-2.752c0.682-0.778,1.525-1.392,2.527-1.84
		c1.003-0.448,2.154-0.672,3.457-0.672c1.322,0,2.479,0.224,3.471,0.672c0.992,0.448,1.83,1.062,2.513,1.84
		c0.683,0.779,1.194,1.696,1.536,2.752c0.341,1.056,0.512,2.192,0.512,3.408s-0.171,2.347-0.512,3.392
		c-0.342,1.046-0.854,1.958-1.536,2.736c-0.683,0.779-1.521,1.387-2.513,1.824c-0.991,0.437-2.148,0.655-3.471,0.655
		c-1.303,0-2.454-0.219-3.457-0.655c-1.002-0.438-1.846-1.045-2.527-1.824c-0.684-0.778-1.195-1.69-1.536-2.736
		c-0.342-1.045-0.513-2.176-0.513-3.392S641.177,583.058,641.519,582.002z M644.287,588.082c0.266,0.779,0.634,1.43,1.104,1.952
		c0.469,0.522,1.019,0.923,1.648,1.2c0.629,0.277,1.295,0.416,2,0.416c0.703,0,1.37-0.139,2-0.416
		c0.629-0.277,1.178-0.678,1.647-1.2c0.469-0.522,0.837-1.173,1.104-1.952c0.266-0.778,0.399-1.669,0.399-2.672
		s-0.134-1.894-0.399-2.672c-0.268-0.778-0.636-1.435-1.104-1.969c-0.47-0.532-1.019-0.938-1.647-1.216
		c-0.63-0.276-1.297-0.416-2-0.416c-0.705,0-1.371,0.14-2,0.416c-0.63,0.277-1.18,0.684-1.648,1.216
		c-0.47,0.534-0.838,1.19-1.104,1.969c-0.268,0.778-0.4,1.669-0.4,2.672S644.02,587.304,644.287,588.082z"/>
	<path d="M662.734,577.122v3.488h0.064c0.66-1.345,1.471-2.336,2.432-2.977c0.959-0.64,2.176-0.938,3.647-0.896v2.88
		c-1.088,0-2.016,0.149-2.784,0.448c-0.768,0.299-1.387,0.735-1.855,1.312c-0.47,0.576-0.811,1.275-1.023,2.096
		c-0.215,0.822-0.32,1.766-0.32,2.832v7.36h-2.721v-16.544H662.734z"/>
	<path d="M673.486,577.122v2.432h0.063c1.237-1.877,3.019-2.815,5.345-2.815c1.023,0,1.951,0.213,2.783,0.64s1.418,1.152,1.76,2.176
		c0.555-0.896,1.285-1.589,2.192-2.08c0.907-0.49,1.903-0.735,2.992-0.735c0.832,0,1.584,0.091,2.256,0.271
		c0.672,0.182,1.248,0.464,1.728,0.849c0.48,0.384,0.854,0.88,1.121,1.487c0.266,0.608,0.399,1.339,0.399,2.192v12.128h-2.72
		v-10.848c0-0.513-0.043-0.992-0.129-1.44c-0.085-0.448-0.245-0.837-0.479-1.168c-0.235-0.33-0.56-0.592-0.976-0.784
		c-0.416-0.191-0.955-0.288-1.616-0.288c-1.345,0-2.399,0.385-3.168,1.152s-1.152,1.792-1.152,3.072v10.304h-2.72v-10.848
		c0-0.533-0.048-1.024-0.145-1.473c-0.096-0.447-0.262-0.837-0.496-1.168c-0.234-0.33-0.549-0.586-0.943-0.768
		c-0.395-0.181-0.901-0.272-1.52-0.272c-0.79,0-1.468,0.16-2.033,0.48c-0.564,0.32-1.023,0.704-1.375,1.151
		c-0.353,0.448-0.608,0.912-0.769,1.393c-0.159,0.479-0.239,0.88-0.239,1.2v10.304h-2.721v-16.544H673.486z"/>
	<path d="M711.246,585.57l-13.6-6.177v-2.176l16.256,7.36v1.984l-16.256,7.327v-2.144L711.246,585.57z"/>
</g>
<rect x="541.417" y="762.709" fill="#CFF4FD" width="181" height="48"/>
<g enable-background="new    ">
	<path d="M556.545,789.665l13.601,6.176v2.144l-16.256-7.327v-1.984l16.256-7.36v2.176L556.545,789.665z"/>
	<path d="M582.85,774.369l-9.473,23.903h-2.304l9.44-23.903H582.85z"/>
	<path d="M586.4,794.064c0.256,0.416,0.593,0.747,1.009,0.992c0.415,0.245,0.885,0.422,1.407,0.528
		c0.523,0.106,1.062,0.16,1.617,0.16c0.426,0,0.874-0.032,1.344-0.097c0.469-0.063,0.9-0.181,1.295-0.352s0.721-0.421,0.977-0.752
		s0.385-0.752,0.385-1.265c0-0.703-0.268-1.236-0.801-1.6c-0.533-0.362-1.199-0.656-2-0.88c-0.8-0.224-1.67-0.427-2.607-0.608
		c-0.939-0.181-1.809-0.437-2.608-0.768c-0.8-0.33-1.468-0.795-2-1.392c-0.534-0.598-0.8-1.43-0.8-2.496
		c0-0.832,0.186-1.547,0.56-2.145c0.373-0.597,0.853-1.082,1.44-1.456c0.586-0.373,1.248-0.65,1.984-0.832
		c0.735-0.181,1.466-0.271,2.191-0.271c0.938,0,1.803,0.08,2.592,0.239c0.789,0.16,1.488,0.438,2.096,0.832
		c0.608,0.396,1.094,0.929,1.457,1.601c0.361,0.672,0.576,1.51,0.64,2.512h-2.72c-0.043-0.533-0.182-0.976-0.416-1.328
		c-0.235-0.352-0.534-0.634-0.896-0.848c-0.363-0.213-0.764-0.368-1.2-0.464c-0.438-0.097-0.88-0.145-1.327-0.145
		c-0.406,0-0.816,0.032-1.232,0.097c-0.416,0.063-0.795,0.176-1.137,0.336c-0.341,0.16-0.619,0.373-0.832,0.64
		s-0.319,0.613-0.319,1.04c0,0.47,0.165,0.859,0.496,1.168c0.33,0.31,0.752,0.565,1.264,0.768c0.513,0.203,1.088,0.374,1.728,0.513
		c0.641,0.139,1.281,0.283,1.92,0.432c0.684,0.149,1.35,0.331,2,0.544c0.651,0.214,1.227,0.496,1.729,0.849
		c0.501,0.352,0.906,0.795,1.217,1.327c0.309,0.534,0.463,1.195,0.463,1.984c0,1.003-0.207,1.835-0.623,2.496
		s-0.961,1.195-1.633,1.6c-0.672,0.406-1.43,0.688-2.271,0.849c-0.844,0.16-1.68,0.239-2.512,0.239
		c-0.918,0-1.793-0.096-2.625-0.287c-0.832-0.192-1.567-0.507-2.207-0.944c-0.641-0.438-1.152-1.013-1.537-1.729
		c-0.383-0.714-0.597-1.584-0.639-2.607h2.719C586.006,793.143,586.145,793.648,586.4,794.064z"/>
	<path d="M612.033,796.705c-1.238,0.938-2.795,1.407-4.672,1.407c-1.323,0-2.47-0.213-3.44-0.64
		c-0.972-0.427-1.787-1.023-2.448-1.792c-0.661-0.768-1.157-1.685-1.488-2.752c-0.33-1.066-0.518-2.229-0.56-3.488
		c0-1.258,0.192-2.41,0.576-3.456c0.384-1.045,0.923-1.951,1.616-2.72c0.693-0.768,1.514-1.365,2.464-1.792
		c0.948-0.427,1.989-0.64,3.12-0.64c1.472,0,2.693,0.304,3.664,0.912c0.971,0.607,1.748,1.381,2.336,2.319
		c0.586,0.939,0.992,1.963,1.216,3.072s0.314,2.165,0.272,3.168h-12.385c-0.021,0.726,0.064,1.413,0.256,2.064
		c0.192,0.65,0.502,1.227,0.928,1.728c0.428,0.502,0.971,0.901,1.633,1.2c0.66,0.299,1.439,0.448,2.336,0.448
		c1.152,0,2.096-0.267,2.832-0.801c0.736-0.532,1.221-1.344,1.456-2.432h2.688C614.07,794.369,613.27,795.767,612.033,796.705z
		 M611.377,786.081c-0.246-0.576-0.576-1.072-0.992-1.488s-0.906-0.746-1.472-0.992c-0.565-0.245-1.189-0.368-1.872-0.368
		c-0.704,0-1.339,0.123-1.904,0.368c-0.565,0.246-1.051,0.582-1.455,1.008c-0.406,0.428-0.727,0.924-0.961,1.488
		c-0.234,0.565-0.373,1.168-0.416,1.808h9.504C611.766,787.265,611.622,786.657,611.377,786.081z"/>
	<path d="M627.393,784.097c-0.684-0.576-1.6-0.864-2.752-0.864c-0.981,0-1.803,0.182-2.464,0.544
		c-0.661,0.363-1.19,0.844-1.584,1.44c-0.396,0.598-0.678,1.285-0.849,2.063c-0.17,0.779-0.256,1.584-0.256,2.416
		c0,0.769,0.091,1.516,0.272,2.24c0.181,0.726,0.464,1.371,0.848,1.937s0.886,1.019,1.504,1.359
		c0.618,0.342,1.354,0.513,2.208,0.513c1.344,0,2.395-0.353,3.152-1.057c0.757-0.704,1.221-1.695,1.393-2.976h2.783
		c-0.299,2.048-1.062,3.627-2.288,4.736c-1.228,1.109-2.896,1.663-5.008,1.663c-1.259,0-2.374-0.202-3.345-0.607
		s-1.781-0.981-2.432-1.729c-0.65-0.746-1.141-1.637-1.472-2.672c-0.331-1.034-0.496-2.17-0.496-3.408
		c0-1.236,0.16-2.395,0.479-3.472c0.32-1.077,0.806-2.016,1.457-2.815c0.65-0.801,1.467-1.43,2.447-1.889
		c0.981-0.458,2.123-0.688,3.424-0.688c0.939,0,1.818,0.111,2.641,0.336c0.82,0.224,1.547,0.57,2.176,1.04s1.146,1.062,1.553,1.775
		c0.404,0.716,0.66,1.563,0.768,2.544h-2.816C628.523,785.483,628.075,784.673,627.393,784.097z"/>
	<path d="M641.76,781.217v2.4h-3.295v10.271c0,0.32,0.025,0.576,0.079,0.769c0.054,0.191,0.155,0.341,0.304,0.447
		c0.149,0.107,0.357,0.176,0.625,0.208c0.266,0.032,0.612,0.048,1.039,0.048h1.248v2.4h-2.08c-0.703,0-1.307-0.048-1.808-0.144
		c-0.501-0.097-0.907-0.272-1.216-0.528c-0.31-0.256-0.539-0.618-0.688-1.088c-0.15-0.469-0.225-1.088-0.225-1.856v-10.527h-2.816
		v-2.4h2.816v-4.96h2.721v4.96H641.76z"/>
	<path d="M644.928,778.241v-3.328h2.721v3.328H644.928z M647.648,781.217v16.544h-2.721v-16.544H647.648z"/>
	<path d="M651.487,786.097c0.341-1.056,0.853-1.973,1.536-2.752c0.682-0.778,1.525-1.392,2.527-1.84
		c1.003-0.448,2.154-0.672,3.457-0.672c1.322,0,2.479,0.224,3.471,0.672c0.992,0.448,1.83,1.062,2.513,1.84
		c0.683,0.779,1.194,1.696,1.536,2.752c0.341,1.056,0.512,2.192,0.512,3.408s-0.171,2.347-0.512,3.392
		c-0.342,1.046-0.854,1.958-1.536,2.736c-0.683,0.779-1.521,1.387-2.513,1.824c-0.991,0.437-2.148,0.655-3.471,0.655
		c-1.303,0-2.454-0.219-3.457-0.655c-1.002-0.438-1.846-1.045-2.527-1.824c-0.684-0.778-1.195-1.69-1.536-2.736
		c-0.342-1.045-0.513-2.176-0.513-3.392S651.146,787.152,651.487,786.097z M654.256,792.177c0.266,0.779,0.634,1.43,1.104,1.952
		c0.469,0.522,1.019,0.923,1.648,1.2c0.629,0.277,1.295,0.416,2,0.416c0.703,0,1.37-0.139,2-0.416
		c0.629-0.277,1.178-0.678,1.647-1.2c0.469-0.522,0.837-1.173,1.104-1.952c0.266-0.778,0.399-1.669,0.399-2.672
		s-0.134-1.894-0.399-2.672c-0.268-0.778-0.636-1.435-1.104-1.969c-0.47-0.532-1.019-0.938-1.647-1.216
		c-0.63-0.276-1.297-0.416-2-0.416c-0.705,0-1.371,0.14-2,0.416c-0.63,0.277-1.18,0.684-1.648,1.216
		c-0.47,0.534-0.838,1.19-1.104,1.969c-0.268,0.778-0.4,1.669-0.4,2.672S653.988,791.398,654.256,792.177z"/>
	<path d="M672.799,781.217v2.624h0.064c1.131-2.005,2.922-3.008,5.375-3.008c1.089,0,1.995,0.149,2.721,0.447
		c0.725,0.3,1.312,0.716,1.76,1.248c0.448,0.534,0.763,1.168,0.944,1.904c0.181,0.736,0.272,1.552,0.272,2.448v10.88h-2.721v-11.2
		c0-1.023-0.299-1.834-0.896-2.432c-0.598-0.597-1.418-0.896-2.463-0.896c-0.832,0-1.553,0.128-2.16,0.385
		c-0.608,0.256-1.115,0.618-1.521,1.088c-0.405,0.469-0.71,1.019-0.912,1.647c-0.202,0.63-0.304,1.317-0.304,2.064v9.344h-2.721
		v-16.544H672.799z"/>
	<path d="M701.055,789.665l-13.6-6.177v-2.176l16.256,7.36v1.984l-16.256,7.327v-2.144L701.055,789.665z"/>
</g>
<g enable-background="new    ">
	<path d="M64.971,84.662v17.85h-3.925v-17.85H64.971z"/>
	<path d="M71.421,89.587v1.8h0.075c0.45-0.75,1.033-1.296,1.75-1.638c0.717-0.341,1.45-0.513,2.2-0.513
		c0.95,0,1.729,0.13,2.337,0.388c0.608,0.259,1.087,0.617,1.438,1.075c0.35,0.459,0.596,1.017,0.738,1.675
		c0.141,0.659,0.212,1.388,0.212,2.188v7.95h-3.55v-7.3c0-1.066-0.167-1.862-0.5-2.388s-0.925-0.787-1.775-0.787
		c-0.967,0-1.667,0.287-2.1,0.862s-0.65,1.521-0.65,2.837v6.775h-3.55V89.587H71.421z"/>
	<path d="M89.045,91.912c-0.567,0-1.042,0.129-1.425,0.387c-0.384,0.259-0.696,0.592-0.938,1c-0.242,0.409-0.413,0.859-0.513,1.351
		s-0.15,0.979-0.15,1.462c0,0.467,0.05,0.942,0.15,1.426s0.263,0.921,0.488,1.312c0.225,0.392,0.529,0.712,0.912,0.962
		s0.85,0.375,1.4,0.375c0.85,0,1.504-0.237,1.962-0.712c0.458-0.476,0.746-1.113,0.862-1.913h3.425c-0.234,1.717-0.9,3.025-2,3.925
		c-1.1,0.9-2.509,1.351-4.225,1.351c-0.967,0-1.854-0.163-2.663-0.487c-0.809-0.325-1.496-0.779-2.062-1.363
		c-0.567-0.583-1.009-1.278-1.325-2.087s-0.475-1.696-0.475-2.663c0-1,0.146-1.929,0.438-2.787c0.291-0.858,0.721-1.6,1.287-2.225
		s1.258-1.113,2.075-1.463c0.816-0.35,1.75-0.525,2.8-0.525c0.767,0,1.504,0.101,2.213,0.301c0.708,0.199,1.341,0.504,1.9,0.912
		c0.558,0.408,1.012,0.917,1.362,1.525s0.55,1.329,0.6,2.162H91.67C91.437,92.653,90.562,91.912,89.045,91.912z"/>
	<path d="M100.595,89.587v2.399h0.05c0.167-0.399,0.392-0.771,0.675-1.112c0.283-0.341,0.608-0.633,0.975-0.875
		c0.367-0.241,0.758-0.429,1.175-0.562c0.417-0.133,0.85-0.2,1.3-0.2c0.233,0,0.492,0.042,0.775,0.125v3.301
		c-0.167-0.033-0.367-0.062-0.6-0.088c-0.234-0.025-0.459-0.037-0.675-0.037c-0.65,0-1.2,0.108-1.65,0.324
		c-0.45,0.217-0.812,0.513-1.087,0.888s-0.471,0.812-0.587,1.312c-0.117,0.5-0.175,1.042-0.175,1.625v5.825h-3.55V89.587H100.595z"
		/>
</g>
<g enable-background="new    ">
	<path d="M110.296,99.412c0.533,0.517,1.3,0.774,2.3,0.774c0.716,0,1.333-0.179,1.85-0.537s0.833-0.737,0.95-1.138h3.125
		c-0.5,1.55-1.267,2.658-2.3,3.325c-1.034,0.667-2.284,1-3.75,1c-1.017,0-1.934-0.163-2.75-0.487
		c-0.817-0.325-1.509-0.788-2.075-1.388c-0.567-0.601-1.004-1.316-1.312-2.15c-0.309-0.833-0.462-1.75-0.462-2.75
		c0-0.966,0.158-1.866,0.475-2.7c0.316-0.833,0.766-1.554,1.35-2.162s1.279-1.088,2.088-1.438c0.808-0.35,1.704-0.525,2.688-0.525
		c1.1,0,2.058,0.213,2.875,0.638c0.816,0.425,1.487,0.996,2.012,1.713s0.904,1.533,1.138,2.45c0.233,0.916,0.316,1.875,0.25,2.875
		h-9.325C109.471,98.062,109.762,98.896,110.296,99.412z M114.309,92.611c-0.425-0.466-1.071-0.699-1.938-0.699
		c-0.567,0-1.038,0.096-1.413,0.287s-0.675,0.43-0.9,0.713s-0.384,0.583-0.475,0.899c-0.092,0.317-0.146,0.601-0.163,0.851h5.775
		C115.029,93.762,114.733,93.078,114.309,92.611z"/>
	<path d="M124.295,89.587v1.75h0.05c0.466-0.667,1.029-1.184,1.688-1.55c0.658-0.367,1.413-0.551,2.262-0.551
		c0.816,0,1.562,0.159,2.238,0.476c0.675,0.316,1.188,0.875,1.538,1.675c0.383-0.566,0.904-1.066,1.562-1.5
		c0.658-0.434,1.438-0.65,2.337-0.65c0.683,0,1.316,0.084,1.9,0.25c0.583,0.167,1.083,0.434,1.5,0.801
		c0.417,0.366,0.741,0.846,0.975,1.438c0.233,0.592,0.35,1.304,0.35,2.137v8.65h-3.55v-7.325c0-0.433-0.017-0.841-0.05-1.225
		c-0.034-0.384-0.125-0.717-0.275-1c-0.15-0.283-0.371-0.509-0.663-0.675c-0.292-0.167-0.688-0.25-1.188-0.25
		s-0.904,0.096-1.212,0.287c-0.309,0.191-0.55,0.441-0.725,0.75c-0.175,0.309-0.292,0.658-0.35,1.05
		c-0.059,0.392-0.087,0.788-0.087,1.188v7.2h-3.55v-7.25c0-0.383-0.008-0.763-0.025-1.138s-0.087-0.721-0.212-1.037
		s-0.333-0.571-0.625-0.763c-0.292-0.191-0.721-0.287-1.288-0.287c-0.167,0-0.387,0.037-0.663,0.112
		c-0.275,0.075-0.542,0.217-0.8,0.425c-0.259,0.209-0.479,0.509-0.663,0.9c-0.184,0.392-0.275,0.904-0.275,1.537v7.5h-3.55V89.587
		H124.295z"/>
	<path d="M147.295,99.412c0.533,0.517,1.3,0.774,2.3,0.774c0.716,0,1.333-0.179,1.85-0.537s0.833-0.737,0.95-1.138h3.125
		c-0.5,1.55-1.267,2.658-2.3,3.325c-1.034,0.667-2.284,1-3.75,1c-1.017,0-1.934-0.163-2.75-0.487
		c-0.817-0.325-1.509-0.788-2.075-1.388c-0.567-0.601-1.004-1.316-1.312-2.15c-0.309-0.833-0.462-1.75-0.462-2.75
		c0-0.966,0.158-1.866,0.475-2.7c0.316-0.833,0.766-1.554,1.35-2.162s1.279-1.088,2.088-1.438c0.808-0.35,1.704-0.525,2.688-0.525
		c1.1,0,2.058,0.213,2.875,0.638c0.816,0.425,1.487,0.996,2.012,1.713s0.904,1.533,1.138,2.45c0.233,0.916,0.316,1.875,0.25,2.875
		h-9.325C146.471,98.062,146.762,98.896,147.295,99.412z M151.308,92.611c-0.425-0.466-1.071-0.699-1.938-0.699
		c-0.567,0-1.038,0.096-1.413,0.287s-0.675,0.43-0.9,0.713s-0.384,0.583-0.475,0.899c-0.092,0.317-0.146,0.601-0.163,0.851h5.775
		C152.029,93.762,151.733,93.078,151.308,92.611z"/>
	<path d="M161.22,89.587v1.8h0.075c0.45-0.75,1.033-1.296,1.75-1.638c0.717-0.341,1.45-0.513,2.2-0.513
		c0.95,0,1.729,0.13,2.337,0.388c0.608,0.259,1.087,0.617,1.438,1.075c0.35,0.459,0.596,1.017,0.738,1.675
		c0.141,0.659,0.212,1.388,0.212,2.188v7.95h-3.55v-7.3c0-1.066-0.167-1.862-0.5-2.388s-0.925-0.787-1.775-0.787
		c-0.967,0-1.667,0.287-2.1,0.862s-0.65,1.521-0.65,2.837v6.775h-3.55V89.587H161.22z"/>
	<path d="M179.77,89.587v2.375h-2.6v6.399c0,0.601,0.1,1,0.3,1.2c0.2,0.2,0.6,0.3,1.2,0.3c0.2,0,0.391-0.008,0.575-0.024
		s0.358-0.042,0.525-0.075v2.75c-0.3,0.05-0.634,0.083-1,0.1c-0.367,0.017-0.725,0.025-1.075,0.025c-0.55,0-1.071-0.037-1.562-0.112
		c-0.492-0.075-0.925-0.221-1.3-0.438s-0.671-0.525-0.888-0.925c-0.217-0.4-0.325-0.926-0.325-1.575v-7.625h-2.15v-2.375h2.15
		v-3.875h3.55v3.875H179.77z"/>
	<path d="M181.32,93.562c0.05-0.833,0.258-1.524,0.625-2.075c0.366-0.55,0.833-0.991,1.4-1.324c0.566-0.334,1.204-0.571,1.913-0.713
		c0.708-0.142,1.42-0.213,2.137-0.213c0.65,0,1.308,0.047,1.975,0.138c0.667,0.092,1.275,0.271,1.825,0.538
		c0.55,0.267,1,0.637,1.35,1.112c0.35,0.475,0.525,1.104,0.525,1.888v6.725c0,0.584,0.033,1.142,0.1,1.675
		c0.066,0.534,0.184,0.934,0.35,1.2h-3.6c-0.066-0.2-0.121-0.404-0.162-0.612c-0.042-0.208-0.071-0.421-0.088-0.638
		c-0.566,0.584-1.233,0.992-2,1.225c-0.767,0.233-1.55,0.351-2.35,0.351c-0.617,0-1.192-0.075-1.725-0.226
		c-0.534-0.149-1-0.383-1.4-0.699c-0.4-0.316-0.713-0.717-0.938-1.2c-0.225-0.483-0.338-1.059-0.338-1.726
		c0-0.732,0.129-1.337,0.388-1.812c0.258-0.475,0.591-0.854,1-1.137c0.408-0.283,0.875-0.496,1.4-0.638s1.054-0.254,1.587-0.338
		c0.533-0.083,1.059-0.149,1.575-0.2c0.517-0.05,0.975-0.125,1.375-0.225s0.716-0.246,0.95-0.438
		c0.233-0.191,0.341-0.471,0.325-0.838c0-0.383-0.062-0.688-0.188-0.912s-0.292-0.4-0.5-0.525s-0.45-0.208-0.725-0.25
		c-0.275-0.041-0.571-0.062-0.887-0.062c-0.7,0-1.25,0.15-1.65,0.45c-0.4,0.3-0.634,0.8-0.7,1.5H181.32z M189.52,96.187
		c-0.15,0.134-0.337,0.237-0.562,0.312s-0.467,0.138-0.725,0.188s-0.529,0.092-0.812,0.125c-0.283,0.034-0.566,0.075-0.85,0.125
		c-0.267,0.05-0.529,0.117-0.788,0.2c-0.259,0.084-0.484,0.196-0.675,0.338s-0.346,0.32-0.462,0.537s-0.175,0.492-0.175,0.825
		c0,0.316,0.058,0.583,0.175,0.8s0.275,0.388,0.475,0.513s0.433,0.212,0.7,0.263c0.266,0.05,0.541,0.074,0.825,0.074
		c0.7,0,1.242-0.116,1.625-0.35s0.667-0.513,0.85-0.838c0.183-0.324,0.296-0.653,0.337-0.987c0.042-0.333,0.062-0.6,0.062-0.8
		V96.187z"/>
	<path d="M199.469,84.662v17.85h-3.55v-17.85H199.469z"/>
	<path d="M222.944,84.662v3.3h-9.425v3.825h8.65v3.05h-8.65v4.375h9.625v3.3h-13.55v-17.85H222.944z"/>
	<path d="M228.619,102.512l-4.425-12.925h3.725l2.725,8.825h0.05l2.725-8.825h3.525l-4.375,12.925H228.619z"/>
	<path d="M238.269,93.562c0.05-0.833,0.258-1.524,0.625-2.075c0.366-0.55,0.833-0.991,1.4-1.324
		c0.566-0.334,1.204-0.571,1.913-0.713c0.708-0.142,1.42-0.213,2.137-0.213c0.65,0,1.308,0.047,1.975,0.138
		c0.667,0.092,1.275,0.271,1.825,0.538c0.55,0.267,1,0.637,1.35,1.112c0.35,0.475,0.525,1.104,0.525,1.888v6.725
		c0,0.584,0.033,1.142,0.1,1.675c0.066,0.534,0.184,0.934,0.35,1.2h-3.6c-0.066-0.2-0.121-0.404-0.162-0.612
		c-0.042-0.208-0.071-0.421-0.088-0.638c-0.566,0.584-1.233,0.992-2,1.225c-0.767,0.233-1.55,0.351-2.35,0.351
		c-0.617,0-1.192-0.075-1.725-0.226c-0.534-0.149-1-0.383-1.4-0.699c-0.4-0.316-0.713-0.717-0.938-1.2
		c-0.225-0.483-0.338-1.059-0.338-1.726c0-0.732,0.129-1.337,0.388-1.812c0.258-0.475,0.591-0.854,1-1.137
		c0.408-0.283,0.875-0.496,1.4-0.638s1.054-0.254,1.587-0.338c0.533-0.083,1.059-0.149,1.575-0.2
		c0.517-0.05,0.975-0.125,1.375-0.225s0.716-0.246,0.95-0.438c0.233-0.191,0.341-0.471,0.325-0.838c0-0.383-0.062-0.688-0.188-0.912
		s-0.292-0.4-0.5-0.525s-0.45-0.208-0.725-0.25c-0.275-0.041-0.571-0.062-0.887-0.062c-0.7,0-1.25,0.15-1.65,0.45
		c-0.4,0.3-0.634,0.8-0.7,1.5H238.269z M246.469,96.187c-0.15,0.134-0.337,0.237-0.562,0.312s-0.467,0.138-0.725,0.188
		s-0.529,0.092-0.812,0.125c-0.283,0.034-0.566,0.075-0.85,0.125c-0.267,0.05-0.529,0.117-0.788,0.2
		c-0.259,0.084-0.484,0.196-0.675,0.338s-0.346,0.32-0.462,0.537s-0.175,0.492-0.175,0.825c0,0.316,0.058,0.583,0.175,0.8
		s0.275,0.388,0.475,0.513s0.433,0.212,0.7,0.263c0.266,0.05,0.541,0.074,0.825,0.074c0.7,0,1.242-0.116,1.625-0.35
		s0.667-0.513,0.85-0.838c0.183-0.324,0.296-0.653,0.337-0.987c0.042-0.333,0.062-0.6,0.062-0.8V96.187z"/>
	<path d="M256.418,84.662v17.85h-3.55v-17.85H256.418z"/>
	<path d="M267.969,102.512v-1.8h-0.075c-0.45,0.75-1.034,1.292-1.75,1.625c-0.717,0.333-1.45,0.5-2.2,0.5
		c-0.95,0-1.729-0.125-2.338-0.375s-1.087-0.604-1.438-1.062c-0.35-0.458-0.596-1.017-0.737-1.675s-0.212-1.388-0.212-2.188v-7.95
		h3.55v7.3c0,1.066,0.167,1.862,0.5,2.388c0.333,0.524,0.925,0.787,1.775,0.787c0.967,0,1.667-0.287,2.1-0.862
		c0.433-0.575,0.65-1.521,0.65-2.838v-6.774h3.55v12.925H267.969z"/>
	<path d="M273.894,93.562c0.05-0.833,0.258-1.524,0.625-2.075c0.366-0.55,0.833-0.991,1.4-1.324
		c0.566-0.334,1.204-0.571,1.913-0.713c0.708-0.142,1.42-0.213,2.137-0.213c0.65,0,1.308,0.047,1.975,0.138
		c0.667,0.092,1.275,0.271,1.825,0.538c0.55,0.267,1,0.637,1.35,1.112c0.35,0.475,0.526,1.104,0.526,1.888v6.725
		c0,0.584,0.033,1.142,0.1,1.675c0.066,0.534,0.184,0.934,0.35,1.2h-3.6c-0.066-0.2-0.121-0.404-0.162-0.612
		c-0.042-0.208-0.071-0.421-0.088-0.638c-0.566,0.584-1.233,0.992-2,1.225c-0.767,0.233-1.55,0.351-2.35,0.351
		c-0.617,0-1.192-0.075-1.725-0.226c-0.534-0.149-1-0.383-1.4-0.699c-0.4-0.316-0.713-0.717-0.938-1.2
		c-0.225-0.483-0.338-1.059-0.338-1.726c0-0.732,0.129-1.337,0.388-1.812c0.258-0.475,0.591-0.854,1-1.137
		c0.408-0.283,0.875-0.496,1.4-0.638s1.054-0.254,1.587-0.338c0.533-0.083,1.059-0.149,1.575-0.2
		c0.517-0.05,0.975-0.125,1.375-0.225s0.716-0.246,0.95-0.438c0.233-0.191,0.341-0.471,0.325-0.838c0-0.383-0.062-0.688-0.188-0.912
		s-0.292-0.4-0.5-0.525s-0.45-0.208-0.725-0.25c-0.275-0.041-0.571-0.062-0.887-0.062c-0.7,0-1.25,0.15-1.65,0.45
		c-0.4,0.3-0.634,0.8-0.7,1.5H273.894z M282.093,96.187c-0.15,0.134-0.337,0.237-0.562,0.312s-0.467,0.138-0.725,0.188
		s-0.529,0.092-0.812,0.125c-0.283,0.034-0.566,0.075-0.85,0.125c-0.267,0.05-0.529,0.117-0.788,0.2
		c-0.259,0.084-0.484,0.196-0.675,0.338s-0.346,0.32-0.462,0.537s-0.175,0.492-0.175,0.825c0,0.316,0.058,0.583,0.175,0.8
		s0.275,0.388,0.475,0.513s0.433,0.212,0.7,0.263c0.266,0.05,0.541,0.074,0.825,0.074c0.7,0,1.242-0.116,1.625-0.35
		s0.667-0.513,0.85-0.838c0.183-0.324,0.296-0.653,0.337-0.987c0.042-0.333,0.062-0.6,0.062-0.8V96.187z"/>
	<path d="M295.493,89.587v2.375h-2.601v6.399c0,0.601,0.101,1,0.301,1.2c0.199,0.2,0.6,0.3,1.199,0.3c0.2,0,0.392-0.008,0.575-0.024
		s0.358-0.042,0.525-0.075v2.75c-0.3,0.05-0.634,0.083-1,0.1c-0.367,0.017-0.726,0.025-1.075,0.025c-0.55,0-1.071-0.037-1.562-0.112
		c-0.492-0.075-0.925-0.221-1.3-0.438s-0.671-0.525-0.888-0.925c-0.217-0.4-0.325-0.926-0.325-1.575v-7.625h-2.149v-2.375h2.149
		v-3.875h3.55v3.875H295.493z"/>
	<path d="M297.292,87.587v-2.925h3.55v2.925H297.292z M300.842,89.587v12.925h-3.55V89.587H300.842z"/>
	<path d="M303.717,93.249c0.316-0.841,0.767-1.558,1.351-2.149c0.583-0.592,1.283-1.051,2.1-1.375
		c0.816-0.325,1.733-0.488,2.75-0.488s1.938,0.163,2.763,0.488c0.825,0.324,1.528,0.783,2.112,1.375
		c0.583,0.592,1.033,1.309,1.35,2.149c0.316,0.842,0.476,1.779,0.476,2.812c0,1.034-0.159,1.967-0.476,2.8
		c-0.316,0.834-0.767,1.547-1.35,2.138c-0.584,0.592-1.287,1.046-2.112,1.362s-1.746,0.476-2.763,0.476s-1.934-0.159-2.75-0.476
		s-1.517-0.771-2.1-1.362c-0.584-0.591-1.034-1.304-1.351-2.138c-0.316-0.833-0.475-1.766-0.475-2.8
		C303.243,95.028,303.401,94.091,303.717,93.249z M306.943,97.574c0.1,0.492,0.271,0.934,0.512,1.325
		c0.242,0.392,0.562,0.704,0.963,0.938s0.9,0.35,1.5,0.35s1.104-0.116,1.513-0.35c0.408-0.233,0.733-0.546,0.975-0.938
		s0.413-0.833,0.513-1.325c0.1-0.491,0.15-0.996,0.15-1.513s-0.051-1.024-0.15-1.524s-0.271-0.941-0.513-1.325
		s-0.566-0.696-0.975-0.938c-0.409-0.241-0.913-0.362-1.513-0.362s-1.1,0.121-1.5,0.362s-0.721,0.554-0.963,0.938
		c-0.241,0.384-0.412,0.825-0.512,1.325c-0.101,0.5-0.15,1.008-0.15,1.524S306.842,97.083,306.943,97.574z"/>
	<path d="M322.292,89.587v1.8h0.075c0.45-0.75,1.033-1.296,1.75-1.638c0.717-0.341,1.45-0.513,2.2-0.513
		c0.95,0,1.729,0.13,2.338,0.388c0.607,0.259,1.087,0.617,1.438,1.075c0.35,0.459,0.596,1.017,0.737,1.675
		c0.142,0.659,0.212,1.388,0.212,2.188v7.95h-3.55v-7.3c0-1.066-0.167-1.862-0.5-2.388s-0.925-0.787-1.774-0.787
		c-0.967,0-1.667,0.287-2.101,0.862s-0.649,1.521-0.649,2.837v6.775h-3.551V89.587H322.292z"/>
</g>
<rect x="113.746" y="634.342" fill="#C2EEFA" width="296.667" height="49"/>
<g>
	<g enable-background="new    ">
		<path d="M156.176,647.53l9.536,15.328h0.064V647.53h4.704v22.848h-5.024l-9.504-15.296h-0.064v15.296h-4.704V647.53H156.176z"/>
		<path d="M174.224,658.922c0.064-1.066,0.331-1.952,0.8-2.656s1.066-1.269,1.792-1.695c0.725-0.427,1.541-0.73,2.448-0.912
			c0.906-0.182,1.818-0.272,2.736-0.272c0.832,0,1.674,0.06,2.528,0.176c0.853,0.118,1.632,0.348,2.336,0.688
			c0.704,0.342,1.28,0.816,1.728,1.424c0.448,0.608,0.672,1.414,0.672,2.416v8.608c0,0.747,0.042,1.461,0.128,2.144
			c0.085,0.684,0.234,1.195,0.448,1.536h-4.608c-0.085-0.256-0.155-0.517-0.208-0.784c-0.053-0.267-0.091-0.538-0.112-0.815
			c-0.726,0.747-1.579,1.27-2.56,1.567c-0.981,0.299-1.984,0.448-3.008,0.448c-0.789,0-1.525-0.096-2.208-0.288
			c-0.683-0.192-1.28-0.49-1.792-0.896c-0.512-0.405-0.912-0.917-1.2-1.536s-0.432-1.354-0.432-2.208
			c0-0.938,0.165-1.712,0.496-2.32c0.331-0.608,0.757-1.093,1.28-1.456c0.522-0.362,1.12-0.635,1.792-0.815
			c0.672-0.182,1.349-0.325,2.032-0.433c0.683-0.106,1.354-0.191,2.016-0.256c0.661-0.064,1.248-0.16,1.76-0.288
			c0.512-0.128,0.917-0.314,1.216-0.56c0.298-0.245,0.437-0.603,0.416-1.072c0-0.49-0.08-0.88-0.24-1.168s-0.374-0.512-0.64-0.672
			c-0.267-0.16-0.576-0.267-0.928-0.32c-0.352-0.053-0.731-0.08-1.136-0.08c-0.896,0-1.6,0.192-2.112,0.576
			c-0.512,0.384-0.811,1.024-0.896,1.92H174.224z M184.72,662.282c-0.192,0.171-0.432,0.304-0.72,0.399
			c-0.288,0.097-0.598,0.177-0.928,0.24c-0.331,0.064-0.677,0.117-1.04,0.16c-0.363,0.043-0.726,0.096-1.088,0.16
			c-0.341,0.063-0.677,0.149-1.008,0.256c-0.331,0.106-0.619,0.251-0.864,0.432c-0.245,0.182-0.443,0.411-0.592,0.688
			c-0.149,0.277-0.224,0.629-0.224,1.056c0,0.405,0.075,0.747,0.224,1.024c0.149,0.277,0.352,0.496,0.608,0.655
			c0.256,0.16,0.555,0.272,0.896,0.336c0.341,0.064,0.693,0.097,1.056,0.097c0.896,0,1.589-0.149,2.08-0.448
			c0.49-0.299,0.853-0.656,1.088-1.072c0.234-0.416,0.378-0.837,0.432-1.264c0.053-0.427,0.08-0.768,0.08-1.024V662.282z"/>
		<path d="M196.879,670.378l-5.664-16.544h4.768l3.488,11.296h0.064l3.488-11.296h4.512l-5.6,16.544H196.879z"/>
		<path d="M209.551,651.274v-3.744h4.544v3.744H209.551z M214.095,653.834v16.544h-4.544v-16.544H214.095z"/>
		<path d="M233.311,671.594c-0.181,0.854-0.571,1.648-1.168,2.384c-0.597,0.736-1.461,1.36-2.592,1.872
			c-1.131,0.513-2.646,0.769-4.544,0.769c-0.811,0-1.638-0.102-2.48-0.305c-0.843-0.202-1.611-0.517-2.304-0.943
			c-0.693-0.427-1.27-0.977-1.728-1.648c-0.459-0.672-0.72-1.478-0.784-2.416h4.512c0.213,0.854,0.629,1.445,1.248,1.776
			c0.619,0.33,1.333,0.496,2.144,0.496c1.28,0,2.213-0.384,2.8-1.152c0.586-0.768,0.869-1.739,0.848-2.912v-2.176h-0.064
			c-0.491,0.875-1.189,1.521-2.096,1.937c-0.907,0.415-1.861,0.623-2.864,0.623c-1.238,0-2.304-0.218-3.2-0.655
			s-1.632-1.035-2.208-1.792c-0.576-0.757-0.998-1.643-1.264-2.656c-0.267-1.013-0.4-2.085-0.4-3.216
			c0-1.066,0.155-2.097,0.464-3.088c0.309-0.992,0.762-1.867,1.36-2.624c0.597-0.757,1.338-1.36,2.224-1.809
			c0.885-0.447,1.904-0.672,3.056-0.672c1.088,0,2.042,0.203,2.864,0.608c0.821,0.405,1.509,1.088,2.064,2.048h0.064v-2.208h4.32
			v15.488C233.583,669.983,233.492,670.74,233.311,671.594z M227.087,666.09c0.49-0.256,0.896-0.597,1.216-1.023
			s0.56-0.912,0.72-1.456c0.16-0.544,0.24-1.115,0.24-1.713c0-0.682-0.064-1.327-0.192-1.936s-0.342-1.146-0.64-1.616
			c-0.299-0.469-0.693-0.842-1.184-1.12c-0.491-0.276-1.109-0.416-1.856-0.416c-0.64,0-1.189,0.128-1.648,0.385
			c-0.459,0.256-0.843,0.603-1.152,1.04c-0.31,0.438-0.534,0.938-0.672,1.504s-0.208,1.157-0.208,1.775
			c0,0.598,0.059,1.189,0.176,1.776c0.117,0.587,0.32,1.115,0.608,1.584c0.288,0.47,0.667,0.854,1.136,1.152
			c0.469,0.299,1.056,0.447,1.76,0.447C226.031,666.474,226.596,666.346,227.087,666.09z"/>
		<path d="M237.039,658.922c0.064-1.066,0.331-1.952,0.8-2.656s1.066-1.269,1.792-1.695c0.725-0.427,1.541-0.73,2.448-0.912
			c0.906-0.182,1.818-0.272,2.736-0.272c0.832,0,1.674,0.06,2.528,0.176c0.853,0.118,1.632,0.348,2.336,0.688
			c0.704,0.342,1.28,0.816,1.728,1.424c0.448,0.608,0.672,1.414,0.672,2.416v8.608c0,0.747,0.042,1.461,0.128,2.144
			c0.085,0.684,0.234,1.195,0.448,1.536h-4.608c-0.085-0.256-0.155-0.517-0.208-0.784c-0.053-0.267-0.091-0.538-0.112-0.815
			c-0.726,0.747-1.579,1.27-2.56,1.567c-0.981,0.299-1.984,0.448-3.008,0.448c-0.789,0-1.525-0.096-2.208-0.288
			c-0.683-0.192-1.28-0.49-1.792-0.896c-0.512-0.405-0.912-0.917-1.2-1.536s-0.432-1.354-0.432-2.208
			c0-0.938,0.165-1.712,0.496-2.32c0.331-0.608,0.757-1.093,1.28-1.456c0.522-0.362,1.12-0.635,1.792-0.815
			c0.672-0.182,1.349-0.325,2.032-0.433c0.683-0.106,1.354-0.191,2.016-0.256c0.661-0.064,1.248-0.16,1.76-0.288
			c0.512-0.128,0.917-0.314,1.216-0.56c0.298-0.245,0.437-0.603,0.416-1.072c0-0.49-0.08-0.88-0.24-1.168s-0.374-0.512-0.64-0.672
			c-0.267-0.16-0.576-0.267-0.928-0.32c-0.352-0.053-0.731-0.08-1.136-0.08c-0.896,0-1.6,0.192-2.112,0.576
			c-0.512,0.384-0.811,1.024-0.896,1.92H237.039z M247.535,662.282c-0.192,0.171-0.432,0.304-0.72,0.399
			c-0.288,0.097-0.598,0.177-0.928,0.24c-0.331,0.064-0.677,0.117-1.04,0.16c-0.363,0.043-0.726,0.096-1.088,0.16
			c-0.341,0.063-0.677,0.149-1.008,0.256c-0.331,0.106-0.619,0.251-0.864,0.432c-0.245,0.182-0.443,0.411-0.592,0.688
			c-0.149,0.277-0.224,0.629-0.224,1.056c0,0.405,0.075,0.747,0.224,1.024c0.149,0.277,0.352,0.496,0.608,0.655
			c0.256,0.16,0.555,0.272,0.896,0.336c0.341,0.064,0.693,0.097,1.056,0.097c0.896,0,1.589-0.149,2.08-0.448
			c0.49-0.299,0.853-0.656,1.088-1.072c0.234-0.416,0.378-0.837,0.432-1.264c0.053-0.427,0.08-0.768,0.08-1.024V662.282z"/>
		<path d="M264.686,653.834v3.04h-3.328v8.192c0,0.768,0.128,1.279,0.384,1.535c0.256,0.257,0.768,0.385,1.536,0.385
			c0.256,0,0.501-0.011,0.736-0.032c0.234-0.021,0.458-0.053,0.672-0.096v3.52c-0.384,0.064-0.811,0.106-1.28,0.128
			c-0.47,0.021-0.928,0.032-1.376,0.032c-0.704,0-1.371-0.048-2-0.145c-0.63-0.096-1.184-0.282-1.664-0.56s-0.859-0.672-1.136-1.184
			c-0.277-0.513-0.416-1.185-0.416-2.017v-9.76h-2.752v-3.04h2.752v-4.96h4.544v4.96H264.686z"/>
		<path d="M266.99,651.274v-3.744h4.544v3.744H266.99z M271.534,653.834v16.544h-4.544v-16.544H271.534z"/>
		<path d="M275.214,658.521c0.405-1.076,0.981-1.994,1.728-2.752c0.747-0.757,1.643-1.344,2.688-1.76
			c1.045-0.416,2.218-0.624,3.52-0.624s2.48,0.208,3.536,0.624c1.056,0.416,1.957,1.003,2.704,1.76
			c0.747,0.758,1.322,1.676,1.728,2.752c0.405,1.078,0.608,2.278,0.608,3.601c0,1.323-0.203,2.518-0.608,3.584
			c-0.406,1.066-0.981,1.979-1.728,2.736c-0.747,0.757-1.648,1.339-2.704,1.743c-1.056,0.405-2.235,0.608-3.536,0.608
			s-2.475-0.203-3.52-0.608c-1.046-0.404-1.942-0.986-2.688-1.743c-0.747-0.758-1.323-1.67-1.728-2.736
			c-0.406-1.066-0.608-2.261-0.608-3.584C274.605,660.8,274.808,659.6,275.214,658.521z M279.342,664.058
			c0.128,0.63,0.346,1.195,0.656,1.696c0.309,0.502,0.72,0.901,1.232,1.2c0.512,0.299,1.152,0.448,1.92,0.448
			c0.768,0,1.413-0.149,1.936-0.448c0.522-0.299,0.938-0.698,1.248-1.2c0.309-0.501,0.528-1.066,0.656-1.696
			c0.128-0.629,0.192-1.274,0.192-1.936s-0.064-1.312-0.192-1.952s-0.347-1.205-0.656-1.696c-0.31-0.49-0.726-0.891-1.248-1.199
			c-0.523-0.31-1.168-0.465-1.936-0.465c-0.768,0-1.408,0.155-1.92,0.465c-0.512,0.309-0.923,0.709-1.232,1.199
			c-0.31,0.491-0.528,1.057-0.656,1.696s-0.192,1.291-0.192,1.952S279.214,663.429,279.342,664.058z"/>
		<path d="M298.989,653.834v2.304h0.096c0.576-0.96,1.322-1.658,2.24-2.096c0.917-0.438,1.856-0.656,2.816-0.656
			c1.216,0,2.213,0.166,2.992,0.496c0.779,0.331,1.392,0.79,1.84,1.376c0.448,0.587,0.762,1.302,0.944,2.145
			c0.181,0.843,0.272,1.775,0.272,2.8v10.176h-4.544v-9.344c0-1.365-0.213-2.384-0.64-3.057c-0.427-0.672-1.184-1.008-2.272-1.008
			c-1.237,0-2.133,0.368-2.688,1.104c-0.555,0.735-0.832,1.946-0.832,3.632v8.672h-4.544v-16.544H298.989z"/>
	</g>
</g>
<g>
	<g enable-background="new    ">
		<path d="M328.973,666.746l-0.031,3.552l-3.552-0.031l0.031-3.552L328.973,666.746z M339.628,666.841l-0.031,3.552l-3.552-0.031
			l0.031-3.552L339.628,666.841z M350.284,666.936l-0.031,3.552l-3.552-0.031l0.031-3.552L350.284,666.936z"/>
	</g>
</g>
<g>
	<g enable-background="new    ">
		<path d="M378.518,646.308l-8.928,23.903h-3.616l8.896-23.903H378.518z"/>
		<path d="M391.381,661.604l-11.744-4.672v-3.681l16.256,6.464v3.776l-16.256,6.432v-3.647L391.381,661.604z"/>
	</g>
</g>
<g>
	<text transform="matrix(1 0 0 1 118.9233 669.3662)" font-family="'HelveticaNeue-Bold'" font-size="32"> &lt;</text>
</g>
</svg>
